<?xml version="1.0" encoding="UTF-8" standalone="no"?>
<!DOCTYPE svg PUBLIC "-//W3C//DTD SVG 1.1//EN"
 "http://www.w3.org/Graphics/SVG/1.1/DTD/svg11.dtd">
<!-- Generated by graphviz version 2.40.1 (20161225.0304)
 -->
<!-- Title: PAG Pages: 1 -->
<svg width="913pt" height="475pt"
 viewBox="0.00 0.00 912.58 475.34" xmlns="http://www.w3.org/2000/svg" xmlns:xlink="http://www.w3.org/1999/xlink">
<g id="graph0" class="graph" transform="scale(1 1) rotate(0) translate(4 471.3433)">
<title>PAG</title>
<polygon fill="#ffffff" stroke="transparent" points="-4,4 -4,-471.3433 908.5768,-471.3433 908.5768,4 -4,4"/>
<!-- AGE -->
<g id="node1" class="node">
<title>AGE</title>
<ellipse fill="#aed6f1" stroke="#000000" cx="208.5471" cy="-372.568" rx="30.7577" ry="18"/>
<text text-anchor="middle" x="208.5471" y="-368.368" font-family="Times,serif" font-size="14.00" fill="#000000">AGE</text>
</g>
<!-- LGT_COND -->
<g id="node6" class="node">
<title>LGT_COND</title>
<ellipse fill="#aed6f1" stroke="#000000" cx="349.7548" cy="-319.568" rx="61.9789" ry="18"/>
<text text-anchor="middle" x="349.7548" y="-315.368" font-family="Times,serif" font-size="14.00" fill="#000000">LGT_COND</text>
</g>
<!-- AGE&#45;&gt;LGT_COND -->
<g id="edge1" class="edge">
<title>AGE&#45;&gt;LGT_COND</title>
<path fill="none" stroke="#000000" d="M244.4041,-359.1097C261.9118,-352.5385 283.2166,-344.542 302.0742,-337.4641"/>
<polygon fill="#000000" stroke="#000000" points="242.9086,-355.9325 234.7763,-362.7233 245.3685,-362.4861 242.9086,-355.9325"/>
<polygon fill="#000000" stroke="#000000" points="303.547,-340.6498 311.6793,-333.859 301.0872,-334.0963 303.547,-340.6498"/>
</g>
<!-- DR_AGE -->
<g id="node14" class="node">
<title>DR_AGE</title>
<ellipse fill="#aed6f1" stroke="#000000" cx="509.2016" cy="-411.568" rx="49.2376" ry="18"/>
<text text-anchor="middle" x="509.2016" y="-407.368" font-family="Times,serif" font-size="14.00" fill="#000000">DR_AGE</text>
</g>
<!-- AGE&#45;&gt;DR_AGE -->
<g id="edge2" class="edge">
<title>AGE&#45;&gt;DR_AGE</title>
<path fill="none" stroke="#000000" d="M249.9707,-372.4634C291.235,-372.9563 356.2643,-375.3511 411.7443,-384.568 429.3075,-387.4858 448.2484,-392.3285 464.7199,-397.1134"/>
<polygon fill="#000000" stroke="#000000" points="249.7869,-368.9618 239.7568,-372.3747 249.726,-375.9615 249.7869,-368.9618"/>
<ellipse fill="none" stroke="#000000" cx="468.7559" cy="-398.3111" rx="4" ry="4"/>
</g>
<!-- DR_SEX -->
<g id="node15" class="node">
<title>DR_SEX</title>
<ellipse fill="#aed6f1" stroke="#000000" cx="349.7548" cy="-411.568" rx="47.5312" ry="18"/>
<text text-anchor="middle" x="349.7548" y="-407.368" font-family="Times,serif" font-size="14.00" fill="#000000">DR_SEX</text>
</g>
<!-- AGE&#45;&gt;DR_SEX -->
<g id="edge3" class="edge">
<title>AGE&#45;&gt;DR_SEX</title>
<path fill="none" stroke="#000000" d="M246.5012,-383.0505C264.0155,-387.8878 284.9673,-393.6744 303.4065,-398.7671"/>
<polygon fill="#000000" stroke="#000000" points="247.3541,-379.6551 236.7832,-380.3665 245.4905,-386.4025 247.3541,-379.6551"/>
<ellipse fill="none" stroke="#000000" cx="307.2822" cy="-399.8375" rx="4" ry="4"/>
</g>
<!-- PED_DEATH -->
<g id="node17" class="node">
<title>PED_DEATH</title>
<ellipse fill="#aed6f1" stroke="#000000" cx="837.7599" cy="-277.568" rx="66.6344" ry="18"/>
<text text-anchor="middle" x="837.7599" y="-273.368" font-family="Times,serif" font-size="14.00" fill="#000000">PED_DEATH</text>
</g>
<!-- AGE&#45;&gt;PED_DEATH -->
<g id="edge4" class="edge">
<title>AGE&#45;&gt;PED_DEATH</title>
<path fill="none" stroke="#000000" d="M229.0048,-396.6483C243.6081,-411.8785 264.6883,-430.2144 287.7654,-438.568 405.9886,-481.3631 449.3729,-471.7019 570.659,-438.568 667.7249,-412.0508 764.6229,-339.1874 810.4434,-301.2417"/>
<polygon fill="#000000" stroke="#000000" points="231.3356,-394.013 221.9823,-389.0363 226.1906,-398.7596 231.3356,-394.013"/>
<polygon fill="#000000" stroke="#000000" points="812.7137,-303.9057 818.1334,-294.802 808.2194,-298.539 812.7137,-303.9057"/>
</g>
<!-- VE_FORMS -->
<g id="node2" class="node">
<title>VE_FORMS</title>
<ellipse fill="#aed6f1" stroke="#000000" cx="64.6644" cy="-228.568" rx="61.436" ry="18"/>
<text text-anchor="middle" x="64.6644" y="-224.368" font-family="Times,serif" font-size="14.00" fill="#000000">VE_FORMS</text>
</g>
<!-- ROUTE -->
<g id="node4" class="node">
<title>ROUTE</title>
<ellipse fill="#aed6f1" stroke="#000000" cx="208.5471" cy="-182.568" rx="43.4377" ry="18"/>
<text text-anchor="middle" x="208.5471" y="-178.368" font-family="Times,serif" font-size="14.00" fill="#000000">ROUTE</text>
</g>
<!-- VE_FORMS&#45;&gt;ROUTE -->
<g id="edge5" class="edge">
<title>VE_FORMS&#45;&gt;ROUTE</title>
<path fill="none" stroke="#000000" d="M115.811,-212.2162C131.583,-207.1738 148.8139,-201.665 164.0965,-196.7791"/>
<polygon fill="#000000" stroke="#000000" points="114.7405,-208.8839 106.2813,-215.2629 116.8722,-215.5514 114.7405,-208.8839"/>
<polygon fill="#000000" stroke="#000000" points="165.364,-200.0485 173.8232,-193.6694 163.2323,-193.3809 165.364,-200.0485"/>
</g>
<!-- VE_FORMS&#45;&gt;LGT_COND -->
<g id="edge6" class="edge">
<title>VE_FORMS&#45;&gt;LGT_COND</title>
<path fill="none" stroke="#000000" d="M109.9398,-245.9465C127.1872,-252.3721 147.0809,-259.5505 165.3288,-265.568 208.3367,-279.7504 257.5864,-294.0747 294.3675,-304.4031"/>
<ellipse fill="none" stroke="#000000" cx="105.9628" cy="-244.457" rx="4" ry="4"/>
<polygon fill="#000000" stroke="#000000" points="293.8223,-307.8848 304.3955,-307.2068 295.7072,-301.1433 293.8223,-307.8848"/>
</g>
<!-- RUR_URB -->
<g id="node16" class="node">
<title>RUR_URB</title>
<ellipse fill="#aed6f1" stroke="#000000" cx="670.801" cy="-235.568" rx="55.6372" ry="18"/>
<text text-anchor="middle" x="670.801" y="-231.368" font-family="Times,serif" font-size="14.00" fill="#000000">RUR_URB</text>
</g>
<!-- VE_FORMS&#45;&gt;RUR_URB -->
<g id="edge7" class="edge">
<title>VE_FORMS&#45;&gt;RUR_URB</title>
<path fill="none" stroke="#000000" d="M126.2143,-229.8385C171.0151,-230.7225 233.1479,-231.8645 287.7654,-232.568 398.9055,-233.9995 528.1946,-234.8406 604.5598,-235.252"/>
<polygon fill="#000000" stroke="#000000" points="604.9581,-238.7541 614.9766,-235.3072 604.9953,-231.7542 604.9581,-238.7541"/>
</g>
<!-- VE_FORMS&#45;&gt;PED_DEATH -->
<g id="edge8" class="edge">
<title>VE_FORMS&#45;&gt;PED_DEATH</title>
<path fill="none" stroke="#000000" d="M81.9366,-202.0414C121.7041,-144.5451 225.8884,-13.568 349.7548,-13.568 349.7548,-13.568 349.7548,-13.568 509.2016,-13.568 609.8858,-13.568 653.511,26.6448 734.9429,-32.568 806.6693,-84.7235 828.6515,-196.7205 835.1515,-249.2622"/>
<polygon fill="#000000" stroke="#000000" points="78.8413,-200.3692 76.1141,-210.607 84.6304,-204.3044 78.8413,-200.3692"/>
<polygon fill="#000000" stroke="#000000" points="831.6782,-249.6955 836.2857,-259.236 838.6333,-248.9045 831.6782,-249.6955"/>
</g>
<!-- DAY_WEEK -->
<g id="node3" class="node">
<title>DAY_WEEK</title>
<ellipse fill="#aed6f1" stroke="#000000" cx="64.6644" cy="-282.568" rx="64.8293" ry="18"/>
<text text-anchor="middle" x="64.6644" y="-278.368" font-family="Times,serif" font-size="14.00" fill="#000000">DAY_WEEK</text>
</g>
<!-- RELJCT1 -->
<g id="node5" class="node">
<title>RELJCT1</title>
<ellipse fill="#aed6f1" stroke="#000000" cx="349.7548" cy="-205.568" rx="50.3994" ry="18"/>
<text text-anchor="middle" x="349.7548" y="-201.368" font-family="Times,serif" font-size="14.00" fill="#000000">RELJCT1</text>
</g>
<!-- ROUTE&#45;&gt;RELJCT1 -->
<g id="edge9" class="edge">
<title>ROUTE&#45;&gt;RELJCT1</title>
<path fill="none" stroke="#000000" d="M258.9105,-190.7712C270.2347,-192.6157 282.3176,-194.5838 293.8527,-196.4626"/>
<polygon fill="#000000" stroke="#000000" points="259.4442,-187.3121 249.0116,-189.1589 258.3188,-194.2211 259.4442,-187.3121"/>
<polygon fill="#000000" stroke="#000000" points="293.3831,-199.9322 303.8157,-198.0854 294.5085,-193.0232 293.3831,-199.9322"/>
</g>
<!-- ROUTE&#45;&gt;LGT_COND -->
<g id="edge10" class="edge">
<title>ROUTE&#45;&gt;LGT_COND</title>
<path fill="none" stroke="#000000" d="M233.3288,-206.6112C258.9932,-231.5109 298.8779,-270.2071 324.658,-295.219"/>
<polygon fill="#000000" stroke="#000000" points="235.4763,-203.8182 225.862,-199.3669 230.602,-208.8423 235.4763,-203.8182"/>
<polygon fill="#000000" stroke="#000000" points="322.2385,-297.7482 331.8529,-302.1995 327.1128,-292.7241 322.2385,-297.7482"/>
</g>
<!-- VPAVETYP -->
<g id="node9" class="node">
<title>VPAVETYP</title>
<ellipse fill="#aed6f1" stroke="#000000" cx="509.2016" cy="-113.568" rx="61.4147" ry="18"/>
<text text-anchor="middle" x="509.2016" y="-109.368" font-family="Times,serif" font-size="14.00" fill="#000000">VPAVETYP</text>
</g>
<!-- ROUTE&#45;&gt;VPAVETYP -->
<g id="edge11" class="edge">
<title>ROUTE&#45;&gt;VPAVETYP</title>
<path fill="none" stroke="#000000" d="M221.9671,-155.6624C235.1672,-132.5346 257.7016,-100.7377 287.7654,-86.568 345.0009,-59.5917 419.3717,-78.045 465.6943,-94.9289"/>
<polygon fill="#000000" stroke="#000000" points="218.7743,-154.2062 217.0474,-164.6594 224.916,-157.5647 218.7743,-154.2062"/>
<polygon fill="#000000" stroke="#000000" points="464.5453,-98.2362 475.1371,-98.4911 467.0161,-91.6867 464.5453,-98.2362"/>
</g>
<!-- MECISSUE -->
<g id="node12" class="node">
<title>MECISSUE</title>
<ellipse fill="#aed6f1" stroke="#000000" cx="349.7548" cy="-113.568" rx="58.5655" ry="18"/>
<text text-anchor="middle" x="349.7548" y="-109.368" font-family="Times,serif" font-size="14.00" fill="#000000">MECISSUE</text>
</g>
<!-- ROUTE&#45;&gt;MECISSUE -->
<g id="edge12" class="edge">
<title>ROUTE&#45;&gt;MECISSUE</title>
<path fill="none" stroke="#000000" d="M246.058,-164.2386C266.1514,-154.4201 290.8661,-142.3435 311.1269,-132.4432"/>
<polygon fill="#000000" stroke="#000000" points="244.2313,-161.2356 236.7832,-168.7707 247.3046,-167.525 244.2313,-161.2356"/>
<ellipse fill="none" stroke="#000000" cx="314.7792" cy="-130.6586" rx="4" ry="4"/>
</g>
<!-- ROUTE&#45;&gt;RUR_URB -->
<g id="edge13" class="edge">
<title>ROUTE&#45;&gt;RUR_URB</title>
<path fill="none" stroke="#000000" d="M251.7019,-179.9933C263.3997,-179.4034 276.064,-178.8632 287.7654,-178.568 342.8496,-177.1782 356.8519,-173.7691 411.7443,-178.568 483.1885,-184.814 500.8006,-190.348 570.659,-206.568 587.1578,-210.3988 604.9756,-215.3039 620.9435,-219.9861"/>
<polygon fill="#000000" stroke="#000000" points="620.0356,-223.3675 630.6184,-222.861 622.0296,-216.6575 620.0356,-223.3675"/>
</g>
<!-- RELJCT1&#45;&gt;RUR_URB -->
<g id="edge14" class="edge">
<title>RELJCT1&#45;&gt;RUR_URB</title>
<path fill="none" stroke="#000000" d="M409.4738,-208.8138C453.977,-211.4947 516.2058,-215.7961 570.659,-221.568 583.4694,-222.9259 597.1642,-224.6556 610.1837,-226.4325"/>
<polygon fill="#000000" stroke="#000000" points="409.5985,-205.3151 399.4088,-208.2169 409.184,-212.3028 409.5985,-205.3151"/>
<polygon fill="#000000" stroke="#000000" points="610.0634,-229.9494 620.4505,-227.8614 611.0284,-223.0163 610.0634,-229.9494"/>
</g>
<!-- P_CRASH1 -->
<g id="node11" class="node">
<title>P_CRASH1</title>
<ellipse fill="#aed6f1" stroke="#000000" cx="509.2016" cy="-319.568" rx="58.0074" ry="18"/>
<text text-anchor="middle" x="509.2016" y="-315.368" font-family="Times,serif" font-size="14.00" fill="#000000">P_CRASH1</text>
</g>
<!-- LGT_COND&#45;&gt;P_CRASH1 -->
<g id="edge15" class="edge">
<title>LGT_COND&#45;&gt;P_CRASH1</title>
<path fill="none" stroke="#000000" d="M421.9032,-319.568C428.1273,-319.568 434.4135,-319.568 440.6083,-319.568"/>
<polygon fill="#000000" stroke="#000000" points="421.8577,-316.0681 411.8577,-319.568 421.8577,-323.0681 421.8577,-316.0681"/>
<polygon fill="#000000" stroke="#000000" points="440.9203,-323.0681 450.9203,-319.568 440.9202,-316.0681 440.9203,-323.0681"/>
</g>
<!-- LGT_COND&#45;&gt;DR_AGE -->
<g id="edge16" class="edge">
<title>LGT_COND&#45;&gt;DR_AGE</title>
<path fill="none" stroke="#000000" d="M391.5118,-339.7781C398.394,-343.4892 405.3601,-347.4868 411.7443,-351.568 428.8227,-362.4856 430.6852,-368.6204 447.7443,-379.568 455.2629,-384.3931 463.5914,-389.1117 471.627,-393.3795"/>
<polygon fill="#000000" stroke="#000000" points="392.7228,-336.461 382.2415,-334.9142 389.4705,-342.6596 392.7228,-336.461"/>
<ellipse fill="none" stroke="#000000" cx="475.3448" cy="-395.3152" rx="4" ry="4"/>
</g>
<!-- LGT_COND&#45;&gt;RUR_URB -->
<g id="edge17" class="edge">
<title>LGT_COND&#45;&gt;RUR_URB</title>
<path fill="none" stroke="#000000" d="M394.5864,-307.0258C411.2584,-302.4115 430.3481,-297.187 447.7443,-292.568 505.3875,-277.2629 571.6144,-260.4345 616.8352,-249.0583"/>
<polygon fill="#000000" stroke="#000000" points="617.8767,-252.4055 626.7221,-246.5737 616.1706,-245.6166 617.8767,-252.4055"/>
</g>
<!-- LGT_COND&#45;&gt;PED_DEATH -->
<g id="edge18" class="edge">
<title>LGT_COND&#45;&gt;PED_DEATH</title>
<path fill="none" stroke="#000000" d="M399.9559,-336.1849C415.1353,-340.4497 431.9652,-344.4339 447.7443,-346.568 571.8142,-363.3484 716.6886,-321.3557 790.0132,-295.704"/>
<polygon fill="#000000" stroke="#000000" points="400.8266,-332.7931 390.2468,-333.3583 398.8699,-339.5141 400.8266,-332.7931"/>
<polygon fill="#000000" stroke="#000000" points="791.1956,-298.9983 799.4485,-292.3545 788.8538,-292.4017 791.1956,-298.9983"/>
</g>
<!-- WEATHER -->
<g id="node7" class="node">
<title>WEATHER</title>
<ellipse fill="#aed6f1" stroke="#000000" cx="509.2016" cy="-59.568" rx="58.4667" ry="18"/>
<text text-anchor="middle" x="509.2016" y="-55.368" font-family="Times,serif" font-size="14.00" fill="#000000">WEATHER</text>
</g>
<!-- VSURCOND -->
<g id="node10" class="node">
<title>VSURCOND</title>
<ellipse fill="#aed6f1" stroke="#000000" cx="670.801" cy="-113.568" rx="64.2843" ry="18"/>
<text text-anchor="middle" x="670.801" y="-109.368" font-family="Times,serif" font-size="14.00" fill="#000000">VSURCOND</text>
</g>
<!-- WEATHER&#45;&gt;VSURCOND -->
<g id="edge19" class="edge">
<title>WEATHER&#45;&gt;VSURCOND</title>
<path fill="none" stroke="#000000" d="M556.775,-75.4651C576.562,-82.0771 599.5681,-89.7648 619.7119,-96.4961"/>
<ellipse fill="none" stroke="#000000" cx="552.9413" cy="-74.1841" rx="4" ry="4"/>
<polygon fill="#000000" stroke="#000000" points="618.7504,-99.865 629.3442,-99.7148 620.969,-93.2258 618.7504,-99.865"/>
</g>
<!-- VIS -->
<g id="node13" class="node">
<title>VIS</title>
<ellipse fill="#aed6f1" stroke="#000000" cx="670.801" cy="-59.568" rx="27" ry="18"/>
<text text-anchor="middle" x="670.801" y="-55.368" font-family="Times,serif" font-size="14.00" fill="#000000">VIS</text>
</g>
<!-- WEATHER&#45;&gt;VIS -->
<g id="edge20" class="edge">
<title>WEATHER&#45;&gt;VIS</title>
<path fill="none" stroke="#000000" d="M575.5678,-59.568C595.3583,-59.568 616.3428,-59.568 633.5622,-59.568"/>
<ellipse fill="none" stroke="#000000" cx="571.5427" cy="-59.5681" rx="4" ry="4"/>
<polygon fill="#000000" stroke="#000000" points="633.7529,-63.0681 643.7529,-59.568 633.7528,-56.0681 633.7529,-63.0681"/>
</g>
<!-- PREV_ACC -->
<g id="node8" class="node">
<title>PREV_ACC</title>
<ellipse fill="#aed6f1" stroke="#000000" cx="64.6644" cy="-336.568" rx="60.2923" ry="18"/>
<text text-anchor="middle" x="64.6644" y="-332.368" font-family="Times,serif" font-size="14.00" fill="#000000">PREV_ACC</text>
</g>
<!-- VPAVETYP&#45;&gt;VSURCOND -->
<g id="edge21" class="edge">
<title>VPAVETYP&#45;&gt;VSURCOND</title>
<path fill="none" stroke="#000000" d="M570.7564,-113.568C579.1547,-113.568 587.8475,-113.568 596.4424,-113.568"/>
<polygon fill="#000000" stroke="#000000" points="596.4638,-117.0681 606.4638,-113.568 596.4637,-110.0681 596.4638,-117.0681"/>
</g>
<!-- VPAVETYP&#45;&gt;RUR_URB -->
<g id="edge22" class="edge">
<title>VPAVETYP&#45;&gt;RUR_URB</title>
<path fill="none" stroke="#000000" d="M551.2948,-133.6733C557.9409,-137.3584 564.6095,-141.3751 570.659,-145.568 598.8133,-165.0819 627.5501,-191.7472 646.9764,-210.9816"/>
<polygon fill="#000000" stroke="#000000" points="552.7751,-130.4959 542.3061,-128.8681 549.475,-136.6692 552.7751,-130.4959"/>
<polygon fill="#000000" stroke="#000000" points="644.655,-213.6103 654.1972,-218.2144 649.6089,-208.6646 644.655,-213.6103"/>
</g>
<!-- P_CRASH1&#45;&gt;RUR_URB -->
<g id="edge23" class="edge">
<title>P_CRASH1&#45;&gt;RUR_URB</title>
<path fill="none" stroke="#000000" d="M548.1445,-299.3253C573.6389,-286.0732 606.8137,-268.8289 632.2324,-255.6161"/>
<polygon fill="#000000" stroke="#000000" points="546.4771,-296.2474 539.2185,-303.9651 549.7057,-302.4584 546.4771,-296.2474"/>
<polygon fill="#000000" stroke="#000000" points="633.9591,-258.6632 641.2177,-250.9455 630.7305,-252.4522 633.9591,-258.6632"/>
</g>
<!-- P_CRASH1&#45;&gt;PED_DEATH -->
<g id="edge24" class="edge">
<title>P_CRASH1&#45;&gt;PED_DEATH</title>
<path fill="none" stroke="#000000" d="M571.2195,-311.6402C626.92,-304.5199 708.6618,-294.0708 766.9179,-286.6238"/>
<ellipse fill="none" stroke="#000000" cx="567.0561" cy="-312.1723" rx="4" ry="4"/>
<polygon fill="#000000" stroke="#000000" points="767.6711,-290.0561 777.1465,-285.3163 766.7834,-283.1126 767.6711,-290.0561"/>
</g>
<!-- VIS&#45;&gt;PED_DEATH -->
<g id="edge25" class="edge">
<title>VIS&#45;&gt;PED_DEATH</title>
<path fill="none" stroke="#000000" d="M705.7669,-69.3481C716.0153,-73.4471 726.6767,-79.055 734.9429,-86.568 785.4258,-132.451 815.946,-209.0356 829.4777,-249.898"/>
<polygon fill="#000000" stroke="#000000" points="706.7535,-65.983 696.1593,-65.8675 704.3693,-72.5644 706.7535,-65.983"/>
<polygon fill="#000000" stroke="#000000" points="826.1638,-251.0258 832.5538,-259.4767 832.8285,-248.8854 826.1638,-251.0258"/>
</g>
<!-- RUR_URB&#45;&gt;PED_DEATH -->
<g id="edge26" class="edge">
<title>RUR_URB&#45;&gt;PED_DEATH</title>
<path fill="none" stroke="#000000" d="M724.9527,-249.1904C742.1387,-253.5136 761.2246,-258.3149 778.7358,-262.72"/>
<polygon fill="#000000" stroke="#000000" points="725.6563,-245.7584 715.1045,-246.713 723.9485,-252.5469 725.6563,-245.7584"/>
<polygon fill="#000000" stroke="#000000" points="778.2861,-266.2158 788.8379,-265.2612 779.9939,-259.4273 778.2861,-266.2158"/>
</g>
</g>
</svg>

