<?xml version="1.0" encoding="UTF-8" standalone="no"?>
<!DOCTYPE svg PUBLIC "-//W3C//DTD SVG 1.1//EN"
 "http://www.w3.org/Graphics/SVG/1.1/DTD/svg11.dtd">
<!-- Generated by graphviz version 2.40.1 (20161225.0304)
 -->
<!-- Title: PAG Pages: 1 -->
<svg width="906pt" height="479pt"
 viewBox="0.00 0.00 906.18 479.34" xmlns="http://www.w3.org/2000/svg" xmlns:xlink="http://www.w3.org/1999/xlink">
<g id="graph0" class="graph" transform="scale(1 1) rotate(0) translate(4 475.3429)">
<title>PAG</title>
<polygon fill="#ffffff" stroke="transparent" points="-4,4 -4,-475.3429 902.1839,-475.3429 902.1839,4 -4,4"/>
<!-- AGE -->
<g id="node1" class="node">
<title>AGE</title>
<ellipse fill="#aed6f1" stroke="#000000" cx="202.1542" cy="-413.1065" rx="30.7577" ry="18"/>
<text text-anchor="middle" x="202.1542" y="-408.9065" font-family="Times,serif" font-size="14.00" fill="#000000">AGE</text>
</g>
<!-- LGT_COND -->
<g id="node2" class="node">
<title>LGT_COND</title>
<ellipse fill="#aed6f1" stroke="#000000" cx="343.3619" cy="-322.1065" rx="61.9789" ry="18"/>
<text text-anchor="middle" x="343.3619" y="-317.9065" font-family="Times,serif" font-size="14.00" fill="#000000">LGT_COND</text>
</g>
<!-- AGE&#45;&gt;LGT_COND -->
<g id="edge1" class="edge">
<title>AGE&#45;&gt;LGT_COND</title>
<path fill="none" stroke="#000000" d="M222.9899,-399.6791C245.5976,-385.1099 282.0568,-361.614 308.9335,-344.2936"/>
<polygon fill="#000000" stroke="#000000" points="311.1372,-347.0373 317.647,-338.6783 307.3453,-341.1533 311.1372,-347.0373"/>
</g>
<!-- DR_AGE -->
<g id="node3" class="node">
<title>DR_AGE</title>
<ellipse fill="#aed6f1" stroke="#000000" cx="502.8087" cy="-436.1065" rx="49.2376" ry="18"/>
<text text-anchor="middle" x="502.8087" y="-431.9065" font-family="Times,serif" font-size="14.00" fill="#000000">DR_AGE</text>
</g>
<!-- AGE&#45;&gt;DR_AGE -->
<g id="edge2" class="edge">
<title>AGE&#45;&gt;DR_AGE</title>
<path fill="none" stroke="#000000" d="M227.6766,-434.4469C242.3776,-445.3302 261.7823,-457.4412 281.3725,-463.1065 340.8641,-480.3109 412.4319,-465.4879 457.7779,-451.9357"/>
<polygon fill="#000000" stroke="#000000" points="229.6603,-431.5572 219.5985,-428.2389 225.3948,-437.1076 229.6603,-431.5572"/>
<polygon fill="#000000" stroke="#000000" points="459.0811,-455.1962 467.6,-448.897 457.0122,-448.509 459.0811,-455.1962"/>
</g>
<!-- DR_SEX -->
<g id="node4" class="node">
<title>DR_SEX</title>
<ellipse fill="#aed6f1" stroke="#000000" cx="343.3619" cy="-436.1065" rx="47.5312" ry="18"/>
<text text-anchor="middle" x="343.3619" y="-431.9065" font-family="Times,serif" font-size="14.00" fill="#000000">DR_SEX</text>
</g>
<!-- AGE&#45;&gt;DR_SEX -->
<g id="edge3" class="edge">
<title>AGE&#45;&gt;DR_SEX</title>
<path fill="none" stroke="#000000" d="M242.2094,-419.6307C257.4371,-422.111 275.0136,-424.9739 291.1996,-427.6103"/>
<polygon fill="#000000" stroke="#000000" points="242.5334,-416.1374 232.1007,-417.9842 241.408,-423.0464 242.5334,-416.1374"/>
<ellipse fill="none" stroke="#000000" cx="295.5693" cy="-428.322" rx="4" ry="4"/>
</g>
<!-- PED_DEATH -->
<g id="node5" class="node">
<title>PED_DEATH</title>
<ellipse fill="#aed6f1" stroke="#000000" cx="831.367" cy="-306.1065" rx="66.6344" ry="18"/>
<text text-anchor="middle" x="831.367" y="-301.9065" font-family="Times,serif" font-size="14.00" fill="#000000">PED_DEATH</text>
</g>
<!-- AGE&#45;&gt;PED_DEATH -->
<g id="edge4" class="edge">
<title>AGE&#45;&gt;PED_DEATH</title>
<path fill="none" stroke="#000000" d="M243.1034,-409.725C350.21,-400.6383 636.7018,-374.7112 728.55,-350.1065 749.8887,-344.3902 772.569,-335.0638 791.1835,-326.4653"/>
<polygon fill="#000000" stroke="#000000" points="242.6845,-406.2479 233.0141,-410.5761 243.273,-413.2231 242.6845,-406.2479"/>
<polygon fill="#000000" stroke="#000000" points="792.6936,-329.6229 800.244,-322.1904 789.7066,-323.2922 792.6936,-329.6229"/>
</g>
<!-- LGT_COND&#45;&gt;DR_AGE -->
<g id="edge17" class="edge">
<title>LGT_COND&#45;&gt;DR_AGE</title>
<path fill="none" stroke="#000000" d="M375.216,-344.8813C403.3765,-365.0152 444.1908,-394.1963 472.0247,-414.0968"/>
<polygon fill="#000000" stroke="#000000" points="377.0592,-341.8966 366.8889,-338.9276 372.9879,-347.5909 377.0592,-341.8966"/>
<polygon fill="#000000" stroke="#000000" points="470.0474,-416.9856 480.2177,-419.9546 474.1186,-411.2913 470.0474,-416.9856"/>
</g>
<!-- LGT_COND&#45;&gt;PED_DEATH -->
<g id="edge19" class="edge">
<title>LGT_COND&#45;&gt;PED_DEATH</title>
<path fill="none" stroke="#000000" d="M410.4788,-330.3577C487.5862,-338.3724 617.7451,-347.4128 728.55,-333.1065 745.1475,-330.9636 762.8872,-326.9511 778.8775,-322.6623"/>
<polygon fill="#000000" stroke="#000000" points="410.7347,-326.8652 400.4203,-329.2865 409.9934,-333.8259 410.7347,-326.8652"/>
<polygon fill="#000000" stroke="#000000" points="779.8811,-326.0162 788.5817,-319.9706 778.01,-319.2709 779.8811,-326.0162"/>
</g>
<!-- P_CRASH1 -->
<g id="node8" class="node">
<title>P_CRASH1</title>
<ellipse fill="#aed6f1" stroke="#000000" cx="502.8087" cy="-46.1065" rx="58.0074" ry="18"/>
<text text-anchor="middle" x="502.8087" y="-41.9065" font-family="Times,serif" font-size="14.00" fill="#000000">P_CRASH1</text>
</g>
<!-- LGT_COND&#45;&gt;P_CRASH1 -->
<g id="edge16" class="edge">
<title>LGT_COND&#45;&gt;P_CRASH1</title>
<path fill="none" stroke="#000000" d="M370.4416,-297.6215C382.1559,-286.1014 395.4249,-271.7038 405.3514,-257.1065 416.4322,-240.8118 467.3472,-126.5295 490.8532,-73.2869"/>
<polygon fill="#000000" stroke="#000000" points="367.8074,-295.2986 363.0189,-304.7496 372.6559,-300.3476 367.8074,-295.2986"/>
<polygon fill="#000000" stroke="#000000" points="494.075,-74.6552 494.9076,-64.0931 487.6702,-71.8307 494.075,-74.6552"/>
</g>
<!-- RUR_URB -->
<g id="node9" class="node">
<title>RUR_URB</title>
<ellipse fill="#aed6f1" stroke="#000000" cx="664.4081" cy="-168.1065" rx="55.6372" ry="18"/>
<text text-anchor="middle" x="664.4081" y="-163.9065" font-family="Times,serif" font-size="14.00" fill="#000000">RUR_URB</text>
</g>
<!-- LGT_COND&#45;&gt;RUR_URB -->
<g id="edge18" class="edge">
<title>LGT_COND&#45;&gt;RUR_URB</title>
<path fill="none" stroke="#000000" d="M376.0889,-306.6301C394.9535,-297.9917 419.2423,-287.3447 441.3514,-279.1065 494.9324,-259.1414 514.2341,-268.7892 564.2661,-241.1065 582.7412,-230.8842 583.3975,-222.8061 600.2661,-210.1065 609.5475,-203.1189 619.9561,-196.0139 629.6443,-189.6838"/>
<polygon fill="#000000" stroke="#000000" points="631.7768,-192.4734 638.2861,-184.1139 627.9845,-186.5896 631.7768,-192.4734"/>
</g>
<!-- DR_AGE&#45;&gt;PED_DEATH -->
<g id="edge27" class="edge">
<title>DR_AGE&#45;&gt;PED_DEATH</title>
<path fill="none" stroke="#000000" d="M559.9913,-437.4921C607.3805,-436.4731 675.3435,-429.8815 728.55,-404.1065 762.9419,-387.446 793.3725,-355.0447 812.035,-332.065"/>
<ellipse fill="none" stroke="#000000" cx="555.9797" cy="-437.5539" rx="4" ry="4"/>
<polygon fill="#000000" stroke="#000000" points="814.9003,-334.0844 818.3637,-324.0717 809.4122,-329.7392 814.9003,-334.0844"/>
</g>
<!-- VE_FORMS -->
<g id="node6" class="node">
<title>VE_FORMS</title>
<ellipse fill="#aed6f1" stroke="#000000" cx="61.468" cy="-92.1065" rx="61.436" ry="18"/>
<text text-anchor="middle" x="61.468" y="-87.9065" font-family="Times,serif" font-size="14.00" fill="#000000">VE_FORMS</text>
</g>
<!-- VE_FORMS&#45;&gt;LGT_COND -->
<g id="edge6" class="edge">
<title>VE_FORMS&#45;&gt;LGT_COND</title>
<path fill="none" stroke="#000000" d="M74.374,-117.5685C90.6673,-147.6529 121.1817,-197.7021 158.9359,-230.1065 198.7342,-264.2653 253.4195,-289.4685 292.8968,-304.7729"/>
<ellipse fill="none" stroke="#000000" cx="72.4224" cy="-113.9035" rx="4" ry="4"/>
<polygon fill="#000000" stroke="#000000" points="291.9961,-308.1746 302.5874,-308.4501 294.4796,-301.63 291.9961,-308.1746"/>
</g>
<!-- VE_FORMS&#45;&gt;PED_DEATH -->
<g id="edge9" class="edge">
<title>VE_FORMS&#45;&gt;PED_DEATH</title>
<path fill="none" stroke="#000000" d="M99.0869,-71.3918C151.9695,-44.2613 252.0607,-.1065 343.3619,-.1065 343.3619,-.1065 343.3619,-.1065 502.8087,-.1065 607.5913,-.1065 650.315,1.5976 728.55,-68.1065 792.2643,-124.8732 817.9985,-228.0929 827.0624,-277.8268"/>
<polygon fill="#000000" stroke="#000000" points="97.3361,-68.3574 90.0841,-76.0813 100.5699,-74.5656 97.3361,-68.3574"/>
<polygon fill="#000000" stroke="#000000" points="823.6462,-278.6125 828.7968,-287.8711 830.5441,-277.4214 823.6462,-278.6125"/>
</g>
<!-- ROUTE -->
<g id="node7" class="node">
<title>ROUTE</title>
<ellipse fill="#aed6f1" stroke="#000000" cx="202.1542" cy="-203.1065" rx="43.4377" ry="18"/>
<text text-anchor="middle" x="202.1542" y="-198.9065" font-family="Times,serif" font-size="14.00" fill="#000000">ROUTE</text>
</g>
<!-- VE_FORMS&#45;&gt;ROUTE -->
<g id="edge5" class="edge">
<title>VE_FORMS&#45;&gt;ROUTE</title>
<path fill="none" stroke="#000000" d="M91.1432,-115.5199C115.4348,-134.6858 149.582,-161.6276 173.5717,-180.5552"/>
<polygon fill="#000000" stroke="#000000" points="93.1605,-112.6534 83.1419,-109.207 88.8246,-118.1489 93.1605,-112.6534"/>
<polygon fill="#000000" stroke="#000000" points="171.5821,-183.4436 181.6008,-186.89 175.918,-177.9482 171.5821,-183.4436"/>
</g>
<!-- VE_FORMS&#45;&gt;P_CRASH1 -->
<g id="edge7" class="edge">
<title>VE_FORMS&#45;&gt;P_CRASH1</title>
<path fill="none" stroke="#000000" d="M126.0103,-82.3738C136.9851,-80.8514 148.2777,-79.3671 158.9359,-78.1065 254.9334,-66.7526 366.4041,-57.0077 435.7837,-51.3484"/>
<polygon fill="#000000" stroke="#000000" points="125.462,-78.9164 116.0482,-83.7774 126.4387,-85.848 125.462,-78.9164"/>
<polygon fill="#000000" stroke="#000000" points="436.4436,-54.8064 446.128,-50.5095 435.8777,-47.8294 436.4436,-54.8064"/>
</g>
<!-- VE_FORMS&#45;&gt;RUR_URB -->
<g id="edge8" class="edge">
<title>VE_FORMS&#45;&gt;RUR_URB</title>
<path fill="none" stroke="#000000" d="M122.7625,-90.1522C218.3966,-88.4862 408.3185,-90.7488 564.2661,-127.1065 584.7974,-131.8932 606.5715,-140.3617 624.5536,-148.3643"/>
<polygon fill="#000000" stroke="#000000" points="623.5714,-151.7636 634.1216,-152.736 626.4805,-145.3967 623.5714,-151.7636"/>
</g>
<!-- ROUTE&#45;&gt;LGT_COND -->
<g id="edge11" class="edge">
<title>ROUTE&#45;&gt;LGT_COND</title>
<path fill="none" stroke="#000000" d="M221.2582,-228.5689C236.1664,-247.234 258.1811,-272.3163 281.3725,-290.1065 287.1203,-294.5156 293.5661,-298.6113 300.0701,-302.2993"/>
<polygon fill="#000000" stroke="#000000" points="223.853,-226.2058 214.9298,-220.4939 218.3434,-230.5237 223.853,-226.2058"/>
<polygon fill="#000000" stroke="#000000" points="298.4517,-305.403 308.9151,-307.0668 301.773,-299.2411 298.4517,-305.403"/>
</g>
<!-- ROUTE&#45;&gt;RUR_URB -->
<g id="edge14" class="edge">
<title>ROUTE&#45;&gt;RUR_URB</title>
<path fill="none" stroke="#000000" d="M219.6828,-186.522C234.7257,-173.5094 257.6736,-156.4155 281.3725,-149.1065 394.7006,-114.1548 535.76,-137.0395 611.0957,-154.1976"/>
<polygon fill="#000000" stroke="#000000" points="610.7462,-157.71 621.2799,-156.574 612.3369,-150.8931 610.7462,-157.71"/>
</g>
<!-- RELJCT1 -->
<g id="node10" class="node">
<title>RELJCT1</title>
<ellipse fill="#aed6f1" stroke="#000000" cx="343.3619" cy="-176.1065" rx="50.3994" ry="18"/>
<text text-anchor="middle" x="343.3619" y="-171.9065" font-family="Times,serif" font-size="14.00" fill="#000000">RELJCT1</text>
</g>
<!-- ROUTE&#45;&gt;RELJCT1 -->
<g id="edge10" class="edge">
<title>ROUTE&#45;&gt;RELJCT1</title>
<path fill="none" stroke="#000000" d="M251.4113,-193.6882C263.5092,-191.375 276.5302,-188.8852 288.8592,-186.5278"/>
<polygon fill="#000000" stroke="#000000" points="250.6532,-190.2696 241.4884,-195.5855 251.9678,-197.1451 250.6532,-190.2696"/>
<polygon fill="#000000" stroke="#000000" points="289.8527,-189.9014 299.0174,-184.5855 288.538,-183.0259 289.8527,-189.9014"/>
</g>
<!-- VPAVETYP -->
<g id="node11" class="node">
<title>VPAVETYP</title>
<ellipse fill="#aed6f1" stroke="#000000" cx="502.8087" cy="-214.1065" rx="61.4147" ry="18"/>
<text text-anchor="middle" x="502.8087" y="-209.9065" font-family="Times,serif" font-size="14.00" fill="#000000">VPAVETYP</text>
</g>
<!-- ROUTE&#45;&gt;VPAVETYP -->
<g id="edge12" class="edge">
<title>ROUTE&#45;&gt;VPAVETYP</title>
<path fill="none" stroke="#000000" d="M227.6935,-226.364C242.2757,-238.0491 261.5617,-250.9966 281.3725,-257.1065 334.0269,-273.3457 351.4346,-268.4725 405.3514,-257.1065 426.1162,-252.7292 447.8469,-243.6364 465.5055,-234.9351"/>
<polygon fill="#000000" stroke="#000000" points="229.6064,-223.4022 219.6828,-219.691 225.1261,-228.7806 229.6064,-223.4022"/>
<polygon fill="#000000" stroke="#000000" points="467.539,-237.8275 474.8649,-230.1737 464.365,-231.5885 467.539,-237.8275"/>
</g>
<!-- MECISSUE -->
<g id="node12" class="node">
<title>MECISSUE</title>
<ellipse fill="#aed6f1" stroke="#000000" cx="343.3619" cy="-230.1065" rx="58.5655" ry="18"/>
<text text-anchor="middle" x="343.3619" y="-225.9065" font-family="Times,serif" font-size="14.00" fill="#000000">MECISSUE</text>
</g>
<!-- ROUTE&#45;&gt;MECISSUE -->
<g id="edge13" class="edge">
<title>ROUTE&#45;&gt;MECISSUE</title>
<path fill="none" stroke="#000000" d="M251.5831,-212.5577C262.4797,-214.6412 274.118,-216.8665 285.3202,-219.0085"/>
<polygon fill="#000000" stroke="#000000" points="251.9678,-209.0679 241.4884,-210.6275 250.6532,-215.9434 251.9678,-209.0679"/>
<ellipse fill="none" stroke="#000000" cx="289.4545" cy="-219.7989" rx="4" ry="4"/>
</g>
<!-- P_CRASH1&#45;&gt;PED_DEATH -->
<g id="edge25" class="edge">
<title>P_CRASH1&#45;&gt;PED_DEATH</title>
<path fill="none" stroke="#000000" d="M557.6431,-58.9928C606.7741,-72.7411 678.5879,-98.5141 728.55,-141.1065 773.5107,-179.4352 805.0566,-242.4909 820.5123,-278.5391"/>
<ellipse fill="none" stroke="#000000" cx="553.5146" cy="-57.8633" rx="4" ry="4"/>
<polygon fill="#000000" stroke="#000000" points="817.3584,-280.0694 824.4427,-287.9474 823.8174,-277.371 817.3584,-280.0694"/>
</g>
<!-- P_CRASH1&#45;&gt;RUR_URB -->
<g id="edge24" class="edge">
<title>P_CRASH1&#45;&gt;RUR_URB</title>
<path fill="none" stroke="#000000" d="M544.4539,-65.9638C551.248,-69.7165 558.0807,-73.8194 564.2661,-78.1065 592.4204,-97.6204 621.1572,-124.2857 640.5835,-143.5201"/>
<polygon fill="#000000" stroke="#000000" points="545.7494,-62.6885 535.2775,-61.0793 542.4603,-68.8676 545.7494,-62.6885"/>
<polygon fill="#000000" stroke="#000000" points="638.2621,-146.1488 647.8043,-150.7529 643.216,-141.2031 638.2621,-146.1488"/>
</g>
<!-- RUR_URB&#45;&gt;PED_DEATH -->
<g id="edge28" class="edge">
<title>RUR_URB&#45;&gt;PED_DEATH</title>
<path fill="none" stroke="#000000" d="M699.6125,-189.6092C709.2294,-195.8955 719.4911,-202.9967 728.55,-210.1065 756.9982,-232.434 786.9374,-261.0525 807.124,-281.2133"/>
<polygon fill="#000000" stroke="#000000" points="701.3207,-186.5466 691.015,-184.0883 697.5383,-192.4368 701.3207,-186.5466"/>
<polygon fill="#000000" stroke="#000000" points="804.8284,-283.8687 814.3597,-288.4952 809.7939,-278.9347 804.8284,-283.8687"/>
</g>
<!-- RELJCT1&#45;&gt;RUR_URB -->
<g id="edge15" class="edge">
<title>RELJCT1&#45;&gt;RUR_URB</title>
<path fill="none" stroke="#000000" d="M403.8103,-174.6002C459.4432,-173.2139 541.7556,-171.1628 598.9289,-169.7381"/>
<polygon fill="#000000" stroke="#000000" points="403.4351,-171.1084 393.5254,-174.8565 403.6095,-178.1062 403.4351,-171.1084"/>
<polygon fill="#000000" stroke="#000000" points="599.0344,-173.2367 608.9441,-169.4886 598.86,-166.2389 599.0344,-173.2367"/>
</g>
<!-- VPAVETYP&#45;&gt;RUR_URB -->
<g id="edge23" class="edge">
<title>VPAVETYP&#45;&gt;RUR_URB</title>
<path fill="none" stroke="#000000" d="M556.6027,-198.7938C574.717,-193.6375 594.8776,-187.8987 612.818,-182.7918"/>
<polygon fill="#000000" stroke="#000000" points="555.6261,-195.4327 546.9665,-201.5368 557.5426,-202.1652 555.6261,-195.4327"/>
<polygon fill="#000000" stroke="#000000" points="613.8698,-186.1316 622.5295,-180.0274 611.9533,-179.399 613.8698,-186.1316"/>
</g>
<!-- VSURCOND -->
<g id="node14" class="node">
<title>VSURCOND</title>
<ellipse fill="#aed6f1" stroke="#000000" cx="664.4081" cy="-237.1065" rx="64.2843" ry="18"/>
<text text-anchor="middle" x="664.4081" y="-232.9065" font-family="Times,serif" font-size="14.00" fill="#000000">VSURCOND</text>
</g>
<!-- VPAVETYP&#45;&gt;VSURCOND -->
<g id="edge22" class="edge">
<title>VPAVETYP&#45;&gt;VSURCOND</title>
<path fill="none" stroke="#000000" d="M558.422,-222.0218C570.813,-223.7854 584.082,-225.6739 596.8929,-227.4972"/>
<polygon fill="#000000" stroke="#000000" points="596.6498,-230.9978 607.0432,-228.9419 597.6362,-224.0677 596.6498,-230.9978"/>
</g>
<!-- WEATHER -->
<g id="node13" class="node">
<title>WEATHER</title>
<ellipse fill="#aed6f1" stroke="#000000" cx="502.8087" cy="-306.1065" rx="58.4667" ry="18"/>
<text text-anchor="middle" x="502.8087" y="-301.9065" font-family="Times,serif" font-size="14.00" fill="#000000">WEATHER</text>
</g>
<!-- WEATHER&#45;&gt;VSURCOND -->
<g id="edge20" class="edge">
<title>WEATHER&#45;&gt;VSURCOND</title>
<path fill="none" stroke="#000000" d="M544.612,-288.2572C567.636,-278.4264 596.217,-266.2228 619.6872,-256.2015"/>
<ellipse fill="none" stroke="#000000" cx="540.7585" cy="-289.9026" rx="4" ry="4"/>
<polygon fill="#000000" stroke="#000000" points="621.2469,-259.3413 629.0692,-252.1955 618.4981,-252.9036 621.2469,-259.3413"/>
</g>
<!-- VIS -->
<g id="node15" class="node">
<title>VIS</title>
<ellipse fill="#aed6f1" stroke="#000000" cx="664.4081" cy="-306.1065" rx="27" ry="18"/>
<text text-anchor="middle" x="664.4081" y="-301.9065" font-family="Times,serif" font-size="14.00" fill="#000000">VIS</text>
</g>
<!-- WEATHER&#45;&gt;VIS -->
<g id="edge21" class="edge">
<title>WEATHER&#45;&gt;VIS</title>
<path fill="none" stroke="#000000" d="M569.1749,-306.1065C588.9654,-306.1065 609.9499,-306.1065 627.1693,-306.1065"/>
<ellipse fill="none" stroke="#000000" cx="565.1498" cy="-306.1066" rx="4" ry="4"/>
<polygon fill="#000000" stroke="#000000" points="627.36,-309.6066 637.36,-306.1065 627.3599,-302.6066 627.36,-309.6066"/>
</g>
<!-- VIS&#45;&gt;PED_DEATH -->
<g id="edge26" class="edge">
<title>VIS&#45;&gt;PED_DEATH</title>
<path fill="none" stroke="#000000" d="M701.6709,-306.1065C717.2905,-306.1065 736.0622,-306.1065 754.4111,-306.1065"/>
<polygon fill="#000000" stroke="#000000" points="701.6045,-302.6066 691.6045,-306.1065 701.6044,-309.6066 701.6045,-302.6066"/>
<polygon fill="#000000" stroke="#000000" points="754.5387,-309.6066 764.5386,-306.1065 754.5386,-302.6066 754.5387,-309.6066"/>
</g>
</g>
</svg>

