<?xml version="1.0" encoding="UTF-8" standalone="no"?>
<!DOCTYPE svg PUBLIC "-//W3C//DTD SVG 1.1//EN"
 "http://www.w3.org/Graphics/SVG/1.1/DTD/svg11.dtd">
<!-- Generated by graphviz version 2.40.1 (20161225.0304)
 -->
<!-- Title: PAG Pages: 1 -->
<svg width="906pt" height="479pt"
 viewBox="0.00 0.00 906.18 479.34" xmlns="http://www.w3.org/2000/svg" xmlns:xlink="http://www.w3.org/1999/xlink">
<g id="graph0" class="graph" transform="scale(1 1) rotate(0) translate(4 475.3429)">
<title>PAG</title>
<polygon fill="#ffffff" stroke="transparent" points="-4,4 -4,-475.3429 902.1839,-475.3429 902.1839,4 -4,4"/>
<!-- AGE -->
<g id="node1" class="node">
<title>AGE</title>
<ellipse fill="#aed6f1" stroke="#000000" cx="202.1542" cy="-413.1065" rx="30.7577" ry="18"/>
<text text-anchor="middle" x="202.1542" y="-408.9065" font-family="Times,serif" font-size="14.00" fill="#000000">AGE</text>
</g>
<!-- LGT_COND -->
<g id="node2" class="node">
<title>LGT_COND</title>
<ellipse fill="#aed6f1" stroke="#000000" cx="343.3619" cy="-322.1065" rx="61.9789" ry="18"/>
<text text-anchor="middle" x="343.3619" y="-317.9065" font-family="Times,serif" font-size="14.00" fill="#000000">LGT_COND</text>
</g>
<!-- AGE&#45;&gt;LGT_COND -->
<g id="edge1" class="edge">
<title>AGE&#45;&gt;LGT_COND</title>
<path fill="none" stroke="#000000" d="M222.9899,-399.6791C245.5976,-385.1099 282.0568,-361.614 308.9335,-344.2936"/>
<polygon fill="#000000" stroke="#000000" points="311.1372,-347.0373 317.647,-338.6783 307.3453,-341.1533 311.1372,-347.0373"/>
</g>
<!-- DR_AGE -->
<g id="node3" class="node">
<title>DR_AGE</title>
<ellipse fill="#aed6f1" stroke="#000000" cx="502.8087" cy="-436.1065" rx="49.2376" ry="18"/>
<text text-anchor="middle" x="502.8087" y="-431.9065" font-family="Times,serif" font-size="14.00" fill="#000000">DR_AGE</text>
</g>
<!-- AGE&#45;&gt;DR_AGE -->
<g id="edge2" class="edge">
<title>AGE&#45;&gt;DR_AGE</title>
<path fill="none" stroke="#000000" d="M227.6766,-434.4469C242.3776,-445.3302 261.7823,-457.4412 281.3725,-463.1065 340.8641,-480.3109 412.4319,-465.4879 457.7779,-451.9357"/>
<polygon fill="#000000" stroke="#000000" points="229.6603,-431.5572 219.5985,-428.2389 225.3948,-437.1076 229.6603,-431.5572"/>
<polygon fill="#000000" stroke="#000000" points="459.0811,-455.1962 467.6,-448.897 457.0122,-448.509 459.0811,-455.1962"/>
</g>
<!-- DR_SEX -->
<g id="node4" class="node">
<title>DR_SEX</title>
<ellipse fill="#aed6f1" stroke="#000000" cx="343.3619" cy="-436.1065" rx="47.5312" ry="18"/>
<text text-anchor="middle" x="343.3619" y="-431.9065" font-family="Times,serif" font-size="14.00" fill="#000000">DR_SEX</text>
</g>
<!-- AGE&#45;&gt;DR_SEX -->
<g id="edge3" class="edge">
<title>AGE&#45;&gt;DR_SEX</title>
<path fill="none" stroke="#000000" d="M242.2094,-419.6307C257.4371,-422.111 275.0136,-424.9739 291.1996,-427.6103"/>
<polygon fill="#000000" stroke="#000000" points="242.5334,-416.1374 232.1007,-417.9842 241.408,-423.0464 242.5334,-416.1374"/>
<ellipse fill="none" stroke="#000000" cx="295.5693" cy="-428.322" rx="4" ry="4"/>
</g>
<!-- PED_DEATH -->
<g id="node5" class="node">
<title>PED_DEATH</title>
<ellipse fill="#aed6f1" stroke="#000000" cx="831.367" cy="-306.1065" rx="66.6344" ry="18"/>
<text text-anchor="middle" x="831.367" y="-301.9065" font-family="Times,serif" font-size="14.00" fill="#000000">PED_DEATH</text>
</g>
<!-- AGE&#45;&gt;PED_DEATH -->
<g id="edge4" class="edge">
<title>AGE&#45;&gt;PED_DEATH</title>
<path fill="none" stroke="#000000" d="M233.0141,-410.5761C330.914,-402.3665 633.6433,-375.5305 728.55,-350.1065 749.8887,-344.3902 772.569,-335.0638 791.1835,-326.4653"/>
<polygon fill="#000000" stroke="#000000" points="792.6936,-329.6229 800.244,-322.1904 789.7066,-323.2922 792.6936,-329.6229"/>
</g>
<!-- LGT_COND&#45;&gt;DR_AGE -->
<g id="edge17" class="edge">
<title>LGT_COND&#45;&gt;DR_AGE</title>
<path fill="none" stroke="#000000" d="M375.216,-344.8813C406.2897,-367.0981 452.7706,-400.3306 480.2177,-419.9546"/>
<polygon fill="#000000" stroke="#000000" points="377.0592,-341.8966 366.8889,-338.9276 372.9879,-347.5909 377.0592,-341.8966"/>
</g>
<!-- LGT_COND&#45;&gt;PED_DEATH -->
<g id="edge19" class="edge">
<title>LGT_COND&#45;&gt;PED_DEATH</title>
<path fill="none" stroke="#000000" d="M400.4203,-329.2865C475.8594,-337.5136 612.7702,-348.0551 728.55,-333.1065 745.1475,-330.9636 762.8872,-326.9511 778.8775,-322.6623"/>
<polygon fill="#000000" stroke="#000000" points="779.8811,-326.0162 788.5817,-319.9706 778.01,-319.2709 779.8811,-326.0162"/>
</g>
<!-- P_CRASH1 -->
<g id="node8" class="node">
<title>P_CRASH1</title>
<ellipse fill="#aed6f1" stroke="#000000" cx="502.8087" cy="-46.1065" rx="58.0074" ry="18"/>
<text text-anchor="middle" x="502.8087" y="-41.9065" font-family="Times,serif" font-size="14.00" fill="#000000">P_CRASH1</text>
</g>
<!-- LGT_COND&#45;&gt;P_CRASH1 -->
<g id="edge16" class="edge">
<title>LGT_COND&#45;&gt;P_CRASH1</title>
<path fill="none" stroke="#000000" d="M363.0189,-304.7496C376.1824,-292.3993 393.2505,-274.9013 405.3514,-257.1065 416.4322,-240.8118 467.3472,-126.5295 490.8532,-73.2869"/>
<polygon fill="#000000" stroke="#000000" points="494.075,-74.6552 494.9076,-64.0931 487.6702,-71.8307 494.075,-74.6552"/>
</g>
<!-- RUR_URB -->
<g id="node9" class="node">
<title>RUR_URB</title>
<ellipse fill="#aed6f1" stroke="#000000" cx="664.4081" cy="-168.1065" rx="55.6372" ry="18"/>
<text text-anchor="middle" x="664.4081" y="-163.9065" font-family="Times,serif" font-size="14.00" fill="#000000">RUR_URB</text>
</g>
<!-- LGT_COND&#45;&gt;RUR_URB -->
<g id="edge18" class="edge">
<title>LGT_COND&#45;&gt;RUR_URB</title>
<path fill="none" stroke="#000000" d="M376.0889,-306.6301C394.9535,-297.9917 419.2423,-287.3447 441.3514,-279.1065 494.9324,-259.1414 514.2341,-268.7892 564.2661,-241.1065 582.7412,-230.8842 583.3975,-222.8061 600.2661,-210.1065 609.5475,-203.1189 619.9561,-196.0139 629.6443,-189.6838"/>
<polygon fill="#000000" stroke="#000000" points="631.7768,-192.4734 638.2861,-184.1139 627.9845,-186.5896 631.7768,-192.4734"/>
</g>
<!-- DR_AGE&#45;&gt;PED_DEATH -->
<g id="edge27" class="edge">
<title>DR_AGE&#45;&gt;PED_DEATH</title>
<path fill="none" stroke="#000000" d="M551.9801,-437.6157C599.4677,-437.1716 672.2654,-431.3726 728.55,-404.1065 762.9419,-387.446 793.3725,-355.0447 812.035,-332.065"/>
<polygon fill="#000000" stroke="#000000" points="814.9003,-334.0844 818.3637,-324.0717 809.4122,-329.7392 814.9003,-334.0844"/>
</g>
<!-- VE_FORMS -->
<g id="node6" class="node">
<title>VE_FORMS</title>
<ellipse fill="#aed6f1" stroke="#000000" cx="61.468" cy="-92.1065" rx="61.436" ry="18"/>
<text text-anchor="middle" x="61.468" y="-87.9065" font-family="Times,serif" font-size="14.00" fill="#000000">VE_FORMS</text>
</g>
<!-- VE_FORMS&#45;&gt;LGT_COND -->
<g id="edge6" class="edge">
<title>VE_FORMS&#45;&gt;LGT_COND</title>
<path fill="none" stroke="#000000" d="M75.4287,-119.5071C91.9635,-149.7658 121.9816,-198.3886 158.9359,-230.1065 202.1069,-267.1601 262.7951,-293.6759 302.5874,-308.4501"/>
<polygon fill="#000000" stroke="#000000" points="78.3455,-117.5395 70.5423,-110.3729 72.1732,-120.8415 78.3455,-117.5395"/>
</g>
<!-- VE_FORMS&#45;&gt;PED_DEATH -->
<g id="edge9" class="edge">
<title>VE_FORMS&#45;&gt;PED_DEATH</title>
<path fill="none" stroke="#000000" d="M90.0841,-76.0813C139.9186,-49.7227 246.5788,-.1065 343.3619,-.1065 343.3619,-.1065 343.3619,-.1065 502.8087,-.1065 607.5913,-.1065 650.315,1.5976 728.55,-68.1065 792.2643,-124.8732 817.9985,-228.0929 827.0624,-277.8268"/>
<polygon fill="#000000" stroke="#000000" points="823.6462,-278.6125 828.7968,-287.8711 830.5441,-277.4214 823.6462,-278.6125"/>
</g>
<!-- ROUTE -->
<g id="node7" class="node">
<title>ROUTE</title>
<ellipse fill="#aed6f1" stroke="#000000" cx="202.1542" cy="-203.1065" rx="43.4377" ry="18"/>
<text text-anchor="middle" x="202.1542" y="-198.9065" font-family="Times,serif" font-size="14.00" fill="#000000">ROUTE</text>
</g>
<!-- VE_FORMS&#45;&gt;ROUTE -->
<g id="edge5" class="edge">
<title>VE_FORMS&#45;&gt;ROUTE</title>
<path fill="none" stroke="#000000" d="M91.1432,-115.5199C118.2989,-136.9455 157.7712,-168.0887 181.6008,-186.89"/>
<polygon fill="#000000" stroke="#000000" points="93.1605,-112.6534 83.1419,-109.207 88.8246,-118.1489 93.1605,-112.6534"/>
</g>
<!-- VE_FORMS&#45;&gt;P_CRASH1 -->
<g id="edge7" class="edge">
<title>VE_FORMS&#45;&gt;P_CRASH1</title>
<path fill="none" stroke="#000000" d="M126.0103,-82.3738C136.9851,-80.8514 148.2777,-79.3671 158.9359,-78.1065 259.8614,-66.1698 377.8895,-56.0114 446.128,-50.5095"/>
<polygon fill="#000000" stroke="#000000" points="125.462,-78.9164 116.0482,-83.7774 126.4387,-85.848 125.462,-78.9164"/>
</g>
<!-- VE_FORMS&#45;&gt;RUR_URB -->
<g id="edge8" class="edge">
<title>VE_FORMS&#45;&gt;RUR_URB</title>
<path fill="none" stroke="#000000" d="M132.8941,-89.9964C231.3399,-88.6807 413.6488,-91.9915 564.2661,-127.1065 588.5995,-132.7796 614.6786,-143.6244 634.1216,-152.736"/>
<polygon fill="#000000" stroke="#000000" points="132.7074,-86.4987 122.7625,-90.1522 132.8152,-93.4979 132.7074,-86.4987"/>
</g>
<!-- ROUTE&#45;&gt;LGT_COND -->
<g id="edge11" class="edge">
<title>ROUTE&#45;&gt;LGT_COND</title>
<path fill="none" stroke="#000000" d="M221.2582,-228.5689C236.1664,-247.234 258.1811,-272.3163 281.3725,-290.1065 287.1203,-294.5156 293.5661,-298.6113 300.0701,-302.2993"/>
<polygon fill="#000000" stroke="#000000" points="223.853,-226.2058 214.9298,-220.4939 218.3434,-230.5237 223.853,-226.2058"/>
<polygon fill="#000000" stroke="#000000" points="298.4517,-305.403 308.9151,-307.0668 301.773,-299.2411 298.4517,-305.403"/>
</g>
<!-- ROUTE&#45;&gt;RUR_URB -->
<g id="edge14" class="edge">
<title>ROUTE&#45;&gt;RUR_URB</title>
<path fill="none" stroke="#000000" d="M219.6828,-186.522C234.7257,-173.5094 257.6736,-156.4155 281.3725,-149.1065 394.7006,-114.1548 535.76,-137.0395 611.0957,-154.1976"/>
<polygon fill="#000000" stroke="#000000" points="610.7462,-157.71 621.2799,-156.574 612.3369,-150.8931 610.7462,-157.71"/>
</g>
<!-- RELJCT1 -->
<g id="node10" class="node">
<title>RELJCT1</title>
<ellipse fill="#aed6f1" stroke="#000000" cx="343.3619" cy="-176.1065" rx="50.3994" ry="18"/>
<text text-anchor="middle" x="343.3619" y="-171.9065" font-family="Times,serif" font-size="14.00" fill="#000000">RELJCT1</text>
</g>
<!-- ROUTE&#45;&gt;RELJCT1 -->
<g id="edge10" class="edge">
<title>ROUTE&#45;&gt;RELJCT1</title>
<path fill="none" stroke="#000000" d="M251.4113,-193.6882C263.5092,-191.375 276.5302,-188.8852 288.8592,-186.5278"/>
<polygon fill="#000000" stroke="#000000" points="250.6532,-190.2696 241.4884,-195.5855 251.9678,-197.1451 250.6532,-190.2696"/>
<polygon fill="#000000" stroke="#000000" points="289.8527,-189.9014 299.0174,-184.5855 288.538,-183.0259 289.8527,-189.9014"/>
</g>
<!-- VPAVETYP -->
<g id="node11" class="node">
<title>VPAVETYP</title>
<ellipse fill="#aed6f1" stroke="#000000" cx="502.8087" cy="-214.1065" rx="61.4147" ry="18"/>
<text text-anchor="middle" x="502.8087" y="-209.9065" font-family="Times,serif" font-size="14.00" fill="#000000">VPAVETYP</text>
</g>
<!-- ROUTE&#45;&gt;VPAVETYP -->
<g id="edge12" class="edge">
<title>ROUTE&#45;&gt;VPAVETYP</title>
<path fill="none" stroke="#000000" d="M227.6935,-226.364C242.2757,-238.0491 261.5617,-250.9966 281.3725,-257.1065 334.0269,-273.3457 351.4346,-268.4725 405.3514,-257.1065 426.1162,-252.7292 447.8469,-243.6364 465.5055,-234.9351"/>
<polygon fill="#000000" stroke="#000000" points="229.6064,-223.4022 219.6828,-219.691 225.1261,-228.7806 229.6064,-223.4022"/>
<polygon fill="#000000" stroke="#000000" points="467.539,-237.8275 474.8649,-230.1737 464.365,-231.5885 467.539,-237.8275"/>
</g>
<!-- MECISSUE -->
<g id="node12" class="node">
<title>MECISSUE</title>
<ellipse fill="#aed6f1" stroke="#000000" cx="343.3619" cy="-230.1065" rx="58.5655" ry="18"/>
<text text-anchor="middle" x="343.3619" y="-225.9065" font-family="Times,serif" font-size="14.00" fill="#000000">MECISSUE</text>
</g>
<!-- ROUTE&#45;&gt;MECISSUE -->
<g id="edge13" class="edge">
<title>ROUTE&#45;&gt;MECISSUE</title>
<path fill="none" stroke="#000000" d="M251.5831,-212.5577C262.4797,-214.6412 274.118,-216.8665 285.3202,-219.0085"/>
<polygon fill="#000000" stroke="#000000" points="251.9678,-209.0679 241.4884,-210.6275 250.6532,-215.9434 251.9678,-209.0679"/>
<ellipse fill="none" stroke="#000000" cx="289.4545" cy="-219.7989" rx="4" ry="4"/>
</g>
<!-- P_CRASH1&#45;&gt;PED_DEATH -->
<g id="edge25" class="edge">
<title>P_CRASH1&#45;&gt;PED_DEATH</title>
<path fill="none" stroke="#000000" d="M549.6563,-56.8077C598.7106,-69.9237 675.8065,-96.143 728.55,-141.1065 773.5107,-179.4352 805.0566,-242.4909 820.5123,-278.5391"/>
<polygon fill="#000000" stroke="#000000" points="817.3584,-280.0694 824.4427,-287.9474 823.8174,-277.371 817.3584,-280.0694"/>
</g>
<!-- P_CRASH1&#45;&gt;RUR_URB -->
<g id="edge24" class="edge">
<title>P_CRASH1&#45;&gt;RUR_URB</title>
<path fill="none" stroke="#000000" d="M544.4539,-65.9638C551.248,-69.7165 558.0807,-73.8194 564.2661,-78.1065 596.1577,-100.2108 628.7967,-131.491 647.8043,-150.7529"/>
<polygon fill="#000000" stroke="#000000" points="545.7494,-62.6885 535.2775,-61.0793 542.4603,-68.8676 545.7494,-62.6885"/>
</g>
<!-- RUR_URB&#45;&gt;PED_DEATH -->
<g id="edge28" class="edge">
<title>RUR_URB&#45;&gt;PED_DEATH</title>
<path fill="none" stroke="#000000" d="M691.015,-184.0883C702.834,-191.5487 716.718,-200.8202 728.55,-210.1065 756.9982,-232.434 786.9374,-261.0525 807.124,-281.2133"/>
<polygon fill="#000000" stroke="#000000" points="804.8284,-283.8687 814.3597,-288.4952 809.7939,-278.9347 804.8284,-283.8687"/>
</g>
<!-- RELJCT1&#45;&gt;RUR_URB -->
<g id="edge15" class="edge">
<title>RELJCT1&#45;&gt;RUR_URB</title>
<path fill="none" stroke="#000000" d="M403.8103,-174.6002C459.4432,-173.2139 541.7556,-171.1628 598.9289,-169.7381"/>
<polygon fill="#000000" stroke="#000000" points="403.4351,-171.1084 393.5254,-174.8565 403.6095,-178.1062 403.4351,-171.1084"/>
<polygon fill="#000000" stroke="#000000" points="599.0344,-173.2367 608.9441,-169.4886 598.86,-166.2389 599.0344,-173.2367"/>
</g>
<!-- VPAVETYP&#45;&gt;RUR_URB -->
<g id="edge23" class="edge">
<title>VPAVETYP&#45;&gt;RUR_URB</title>
<path fill="none" stroke="#000000" d="M556.6027,-198.7938C574.717,-193.6375 594.8776,-187.8987 612.818,-182.7918"/>
<polygon fill="#000000" stroke="#000000" points="555.6261,-195.4327 546.9665,-201.5368 557.5426,-202.1652 555.6261,-195.4327"/>
<polygon fill="#000000" stroke="#000000" points="613.8698,-186.1316 622.5295,-180.0274 611.9533,-179.399 613.8698,-186.1316"/>
</g>
<!-- VSURCOND -->
<g id="node14" class="node">
<title>VSURCOND</title>
<ellipse fill="#aed6f1" stroke="#000000" cx="664.4081" cy="-237.1065" rx="64.2843" ry="18"/>
<text text-anchor="middle" x="664.4081" y="-232.9065" font-family="Times,serif" font-size="14.00" fill="#000000">VSURCOND</text>
</g>
<!-- VPAVETYP&#45;&gt;VSURCOND -->
<g id="edge22" class="edge">
<title>VPAVETYP&#45;&gt;VSURCOND</title>
<path fill="none" stroke="#000000" d="M558.422,-222.0218C570.813,-223.7854 584.082,-225.6739 596.8929,-227.4972"/>
<polygon fill="#000000" stroke="#000000" points="596.6498,-230.9978 607.0432,-228.9419 597.6362,-224.0677 596.6498,-230.9978"/>
</g>
<!-- WEATHER -->
<g id="node13" class="node">
<title>WEATHER</title>
<ellipse fill="#aed6f1" stroke="#000000" cx="502.8087" cy="-306.1065" rx="58.4667" ry="18"/>
<text text-anchor="middle" x="502.8087" y="-301.9065" font-family="Times,serif" font-size="14.00" fill="#000000">WEATHER</text>
</g>
<!-- WEATHER&#45;&gt;VSURCOND -->
<g id="edge20" class="edge">
<title>WEATHER&#45;&gt;VSURCOND</title>
<path fill="none" stroke="#000000" d="M544.612,-288.2572C567.636,-278.4264 596.217,-266.2228 619.6872,-256.2015"/>
<ellipse fill="none" stroke="#000000" cx="540.7585" cy="-289.9026" rx="4" ry="4"/>
<polygon fill="#000000" stroke="#000000" points="621.2469,-259.3413 629.0692,-252.1955 618.4981,-252.9036 621.2469,-259.3413"/>
</g>
<!-- VIS -->
<g id="node15" class="node">
<title>VIS</title>
<ellipse fill="#aed6f1" stroke="#000000" cx="664.4081" cy="-306.1065" rx="27" ry="18"/>
<text text-anchor="middle" x="664.4081" y="-301.9065" font-family="Times,serif" font-size="14.00" fill="#000000">VIS</text>
</g>
<!-- WEATHER&#45;&gt;VIS -->
<g id="edge21" class="edge">
<title>WEATHER&#45;&gt;VIS</title>
<path fill="none" stroke="#000000" d="M561.1498,-306.1065C583.2203,-306.1065 607.7193,-306.1065 627.3133,-306.1065"/>
<polygon fill="#000000" stroke="#000000" points="627.36,-309.6066 637.36,-306.1065 627.3599,-302.6066 627.36,-309.6066"/>
</g>
<!-- VIS&#45;&gt;PED_DEATH -->
<g id="edge26" class="edge">
<title>VIS&#45;&gt;PED_DEATH</title>
<path fill="none" stroke="#000000" d="M691.6045,-306.1065C708.7523,-306.1065 731.8307,-306.1065 754.2878,-306.1065"/>
<polygon fill="#000000" stroke="#000000" points="754.5387,-309.6066 764.5386,-306.1065 754.5386,-302.6066 754.5387,-309.6066"/>
</g>
</g>
</svg>

