<?xml version="1.0" encoding="UTF-8" standalone="no"?>
<!DOCTYPE svg PUBLIC "-//W3C//DTD SVG 1.1//EN"
 "http://www.w3.org/Graphics/SVG/1.1/DTD/svg11.dtd">
<!-- Generated by graphviz version 2.40.1 (20161225.0304)
 -->
<!-- Title: PAG Pages: 1 -->
<svg width="1346pt" height="968pt"
 viewBox="0.00 0.00 1346.48 968.36" xmlns="http://www.w3.org/2000/svg" xmlns:xlink="http://www.w3.org/1999/xlink">
<g id="graph0" class="graph" transform="scale(1 1) rotate(0) translate(4 964.3628)">
<title>PAG</title>
<polygon fill="#ffffff" stroke="transparent" points="-4,4 -4,-964.3628 1342.4769,-964.3628 1342.4769,4 -4,4"/>
<!-- AGE -->
<g id="node1" class="node">
<title>AGE</title>
<ellipse fill="#aed6f1" stroke="#000000" cx="30.8786" cy="-724.1041" rx="30.7577" ry="18"/>
<text text-anchor="middle" x="30.8786" y="-719.9041" font-family="Times,serif" font-size="14.00" fill="#000000">AGE</text>
</g>
<!-- VE_FORMS -->
<g id="node2" class="node">
<title>VE_FORMS</title>
<ellipse fill="#aed6f1" stroke="#000000" cx="159.2252" cy="-526.1041" rx="61.436" ry="18"/>
<text text-anchor="middle" x="159.2252" y="-521.9041" font-family="Times,serif" font-size="14.00" fill="#000000">VE_FORMS</text>
</g>
<!-- AGE&#45;&gt;VE_FORMS -->
<g id="edge1" class="edge">
<title>AGE&#45;&gt;VE_FORMS</title>
<path fill="none" stroke="#000000" d="M41.8214,-707.2228C64.2426,-672.6335 115.5364,-593.5027 142.2882,-552.2328"/>
<polygon fill="#000000" stroke="#000000" points="145.257,-554.0874 147.7595,-543.7923 139.3831,-550.2798 145.257,-554.0874"/>
</g>
<!-- DAY_WEEK -->
<g id="node3" class="node">
<title>DAY_WEEK</title>
<ellipse fill="#aed6f1" stroke="#000000" cx="321.3576" cy="-724.1041" rx="64.8293" ry="18"/>
<text text-anchor="middle" x="321.3576" y="-719.9041" font-family="Times,serif" font-size="14.00" fill="#000000">DAY_WEEK</text>
</g>
<!-- AGE&#45;&gt;DAY_WEEK -->
<g id="edge2" class="edge">
<title>AGE&#45;&gt;DAY_WEEK</title>
<path fill="none" stroke="#000000" d="M61.965,-724.1041C105.6159,-724.1041 186.4296,-724.1041 246.2989,-724.1041"/>
<polygon fill="#000000" stroke="#000000" points="246.468,-727.6042 256.4679,-724.1041 246.4679,-720.6042 246.468,-727.6042"/>
</g>
<!-- ROUTE -->
<g id="node4" class="node">
<title>ROUTE</title>
<ellipse fill="#aed6f1" stroke="#000000" cx="321.3576" cy="-312.1041" rx="43.4377" ry="18"/>
<text text-anchor="middle" x="321.3576" y="-307.9041" font-family="Times,serif" font-size="14.00" fill="#000000">ROUTE</text>
</g>
<!-- AGE&#45;&gt;ROUTE -->
<g id="edge3" class="edge">
<title>AGE&#45;&gt;ROUTE</title>
<path fill="none" stroke="#000000" d="M33.1455,-705.9513C38.7711,-666.0336 56.0475,-568.6512 97.7573,-499.1041 148.8253,-413.9528 175.1294,-398.726 256.6932,-342.1041 263.8541,-337.133 271.9698,-332.6263 279.9728,-328.7048"/>
<polygon fill="#000000" stroke="#000000" points="281.6684,-331.776 289.252,-324.3773 278.7098,-325.432 281.6684,-331.776"/>
</g>
<!-- LGT_COND -->
<g id="node5" class="node">
<title>LGT_COND</title>
<ellipse fill="#aed6f1" stroke="#000000" cx="642.9262" cy="-526.1041" rx="61.9789" ry="18"/>
<text text-anchor="middle" x="642.9262" y="-521.9041" font-family="Times,serif" font-size="14.00" fill="#000000">LGT_COND</text>
</g>
<!-- AGE&#45;&gt;LGT_COND -->
<g id="edge4" class="edge">
<title>AGE&#45;&gt;LGT_COND</title>
<path fill="none" stroke="#000000" d="M57.9558,-732.9161C118.4355,-751.1605 268.4281,-788.3794 386.022,-751.1041 496.348,-716.1327 587.7972,-603.6688 625.009,-552.2268"/>
<polygon fill="#000000" stroke="#000000" points="627.9624,-554.1132 630.9158,-543.9383 622.2619,-550.0506 627.9624,-554.1132"/>
</g>
<!-- DR_AGE -->
<g id="node6" class="node">
<title>DR_AGE</title>
<ellipse fill="#aed6f1" stroke="#000000" cx="799.1688" cy="-762.1041" rx="49.2376" ry="18"/>
<text text-anchor="middle" x="799.1688" y="-757.9041" font-family="Times,serif" font-size="14.00" fill="#000000">DR_AGE</text>
</g>
<!-- AGE&#45;&gt;DR_AGE -->
<g id="edge5" class="edge">
<title>AGE&#45;&gt;DR_AGE</title>
<path fill="none" stroke="#000000" d="M53.5618,-747.2093C99.6124,-791.5224 209.2402,-884.1041 321.3576,-884.1041 321.3576,-884.1041 321.3576,-884.1041 483.4794,-884.1041 582.2571,-884.1041 616.3029,-908.7485 704.9156,-865.1041 743.4034,-846.1478 773.7269,-804.1661 788.7769,-780.0608"/>
<polygon fill="#000000" stroke="#000000" points="55.8168,-744.5191 46.2197,-740.0305 50.923,-749.5242 55.8168,-744.5191"/>
</g>
<!-- DR_SEX -->
<g id="node7" class="node">
<title>DR_SEX</title>
<ellipse fill="#aed6f1" stroke="#000000" cx="957.5639" cy="-697.1041" rx="47.5312" ry="18"/>
<text text-anchor="middle" x="957.5639" y="-692.9041" font-family="Times,serif" font-size="14.00" fill="#000000">DR_SEX</text>
</g>
<!-- AGE&#45;&gt;DR_SEX -->
<g id="edge6" class="edge">
<title>AGE&#45;&gt;DR_SEX</title>
<path fill="none" stroke="#000000" d="M40.3566,-751.5881C50.6537,-777.5937 69.5114,-815.9912 97.7573,-839.1041 155.4948,-886.3495 183.2796,-879.8301 256.6932,-893.1041 452.7265,-928.5491 515.6053,-953.1284 704.9156,-891.1041 805.1003,-858.2803 896.1773,-766.7635 936.1558,-722.1689"/>
<polygon fill="#000000" stroke="#000000" points="43.5218,-750.0635 36.7065,-741.9517 36.9757,-752.5431 43.5218,-750.0635"/>
<polygon fill="#000000" stroke="#000000" points="939.0125,-724.222 943.0166,-714.4129 933.7694,-719.584 939.0125,-724.222"/>
</g>
<!-- PED_DEATH -->
<g id="node8" class="node">
<title>PED_DEATH</title>
<ellipse fill="#aed6f1" stroke="#000000" cx="1271.66" cy="-342.1041" rx="66.6344" ry="18"/>
<text text-anchor="middle" x="1271.66" y="-337.9041" font-family="Times,serif" font-size="14.00" fill="#000000">PED_DEATH</text>
</g>
<!-- AGE&#45;&gt;PED_DEATH -->
<g id="edge7" class="edge">
<title>AGE&#45;&gt;PED_DEATH</title>
<path fill="none" stroke="#000000" d="M31.9735,-705.9832C35.6898,-652.3643 50.3565,-490.4723 97.7573,-366.1041 146.3974,-238.484 185.0624,-219.3874 256.6932,-103.1041 285.0422,-57.0833 267.306,-.1041 321.3576,-.1041 321.3576,-.1041 321.3576,-.1041 957.5639,-.1041 1055.9407,-.1041 1097.4336,1.5618 1168.843,-66.1041 1241.0465,-134.5225 1262.8864,-258.3308 1269.2117,-313.842"/>
<polygon fill="#000000" stroke="#000000" points="1265.7529,-314.4182 1270.2802,-323.997 1272.7145,-313.6856 1265.7529,-314.4182"/>
</g>
<!-- VE_FORMS&#45;&gt;DAY_WEEK -->
<g id="edge8" class="edge">
<title>VE_FORMS&#45;&gt;DAY_WEEK</title>
<path fill="none" stroke="#000000" d="M169.4571,-553.448C184.0444,-589.2819 213.8779,-652.2414 256.6932,-692.1041 264.2106,-699.1031 273.5468,-704.9016 282.7652,-709.5505"/>
<polygon fill="#000000" stroke="#000000" points="172.6903,-552.1064 165.7489,-544.1021 166.1837,-554.688 172.6903,-552.1064"/>
</g>
<!-- VE_FORMS&#45;&gt;ROUTE -->
<g id="edge9" class="edge">
<title>VE_FORMS&#45;&gt;ROUTE</title>
<path fill="none" stroke="#000000" d="M173.5274,-499.1478C200.2317,-448.8504 255.136,-345.6121 256.6932,-344.1041 265.6016,-335.4776 277.2905,-328.7375 288.2772,-323.7149"/>
<polygon fill="#000000" stroke="#000000" points="170.3346,-497.6978 168.7375,-508.1716 176.5176,-500.9798 170.3346,-497.6978"/>
</g>
<!-- VE_FORMS&#45;&gt;LGT_COND -->
<g id="edge11" class="edge">
<title>VE_FORMS&#45;&gt;LGT_COND</title>
<path fill="none" stroke="#000000" d="M231.0501,-526.1041C325.8286,-526.1041 491.107,-526.1041 580.7774,-526.1041"/>
<polygon fill="#000000" stroke="#000000" points="230.9776,-522.6042 220.9776,-526.1041 230.9776,-529.6042 230.9776,-522.6042"/>
</g>
<!-- VE_FORMS&#45;&gt;DR_AGE -->
<g id="edge16" class="edge">
<title>VE_FORMS&#45;&gt;DR_AGE</title>
<path fill="none" stroke="#000000" d="M161.9231,-554.227C168.3633,-603.863 189.5161,-706.0142 256.6932,-751.1041 416.8364,-858.5939 667.8279,-801.1786 761.9043,-773.882"/>
<polygon fill="#000000" stroke="#000000" points="165.3864,-553.7095 160.7308,-544.1923 158.4353,-554.5355 165.3864,-553.7095"/>
</g>
<!-- VE_FORMS&#45;&gt;DR_SEX -->
<g id="edge17" class="edge">
<title>VE_FORMS&#45;&gt;DR_SEX</title>
<path fill="none" stroke="#000000" d="M179.7052,-551.4247C197.7856,-572.0377 225.987,-600.2311 256.6932,-616.1041 479.7547,-731.4117 795.0031,-713.9883 911.7569,-702.4698"/>
<polygon fill="#000000" stroke="#000000" points="182.2211,-548.9817 173.0579,-543.6632 176.9045,-553.5351 182.2211,-548.9817"/>
</g>
<!-- VE_FORMS&#45;&gt;PED_DEATH -->
<g id="edge19" class="edge">
<title>VE_FORMS&#45;&gt;PED_DEATH</title>
<path fill="none" stroke="#000000" d="M160.5817,-544.4442C165.0947,-592.062 183.7694,-720.7375 256.6932,-790.1041 439.7613,-964.2422 546.507,-960.1041 799.1688,-960.1041 799.1688,-960.1041 799.1688,-960.1041 957.5639,-960.1041 1225.7062,-960.1041 1265.0232,-492.0262 1270.7114,-370.599"/>
<polygon fill="#000000" stroke="#000000" points="1274.2228,-370.405 1271.1518,-360.265 1267.2291,-370.1069 1274.2228,-370.405"/>
</g>
<!-- RELJCT1 -->
<g id="node9" class="node">
<title>RELJCT1</title>
<ellipse fill="#aed6f1" stroke="#000000" cx="483.4794" cy="-328.1041" rx="50.3994" ry="18"/>
<text text-anchor="middle" x="483.4794" y="-323.9041" font-family="Times,serif" font-size="14.00" fill="#000000">RELJCT1</text>
</g>
<!-- VE_FORMS&#45;&gt;RELJCT1 -->
<g id="edge10" class="edge">
<title>VE_FORMS&#45;&gt;RELJCT1</title>
<path fill="none" stroke="#000000" d="M170.4426,-498.3664C185.2183,-465.4478 214.3822,-411.3475 256.6932,-382.1041 285.5765,-362.1414 379.4777,-344.434 437.0003,-335.0943"/>
<polygon fill="#000000" stroke="#000000" points="167.0964,-497.2851 166.3204,-507.8515 173.5163,-500.0753 167.0964,-497.2851"/>
</g>
<!-- VPAVETYP -->
<g id="node10" class="node">
<title>VPAVETYP</title>
<ellipse fill="#aed6f1" stroke="#000000" cx="483.4794" cy="-266.1041" rx="61.4147" ry="18"/>
<text text-anchor="middle" x="483.4794" y="-261.9041" font-family="Times,serif" font-size="14.00" fill="#000000">VPAVETYP</text>
</g>
<!-- VE_FORMS&#45;&gt;VPAVETYP -->
<g id="edge12" class="edge">
<title>VE_FORMS&#45;&gt;VPAVETYP</title>
<path fill="none" stroke="#000000" d="M161.3872,-497.9676C167.0172,-446.2008 186.9849,-336.4685 256.6932,-285.1041 307.1091,-247.9553 382.031,-249.5238 431.7875,-256.1072"/>
<polygon fill="#000000" stroke="#000000" points="157.8871,-497.7976 160.3907,-508.0923 164.8534,-498.4833 157.8871,-497.7976"/>
</g>
<!-- P_CRASH1 -->
<g id="node11" class="node">
<title>P_CRASH1</title>
<ellipse fill="#aed6f1" stroke="#000000" cx="799.1688" cy="-350.1041" rx="58.0074" ry="18"/>
<text text-anchor="middle" x="799.1688" y="-345.9041" font-family="Times,serif" font-size="14.00" fill="#000000">P_CRASH1</text>
</g>
<!-- VE_FORMS&#45;&gt;P_CRASH1 -->
<g id="edge13" class="edge">
<title>VE_FORMS&#45;&gt;P_CRASH1</title>
<path fill="none" stroke="#000000" d="M179.5009,-500.3757C197.4565,-479.5133 225.5893,-451.1829 256.6932,-436.1041 341.9616,-394.7671 621.8058,-365.7793 742.7061,-354.8814"/>
<polygon fill="#000000" stroke="#000000" points="176.6493,-498.3292 172.9053,-508.2404 182.0129,-502.8272 176.6493,-498.3292"/>
</g>
<!-- MECISSUE -->
<g id="node12" class="node">
<title>MECISSUE</title>
<ellipse fill="#aed6f1" stroke="#000000" cx="957.5639" cy="-114.1041" rx="58.5655" ry="18"/>
<text text-anchor="middle" x="957.5639" y="-109.9041" font-family="Times,serif" font-size="14.00" fill="#000000">MECISSUE</text>
</g>
<!-- VE_FORMS&#45;&gt;MECISSUE -->
<g id="edge14" class="edge">
<title>VE_FORMS&#45;&gt;MECISSUE</title>
<path fill="none" stroke="#000000" d="M164.9328,-498.0769C186.7564,-399.7064 274.4348,-76.1041 483.4794,-76.1041 483.4794,-76.1041 483.4794,-76.1041 642.9262,-76.1041 737.1506,-76.1041 846.1096,-93.1087 907.9257,-104.3675"/>
<polygon fill="#000000" stroke="#000000" points="161.5,-497.3923 162.8068,-507.9062 168.3418,-498.8722 161.5,-497.3923"/>
</g>
<!-- VIS -->
<g id="node13" class="node">
<title>VIS</title>
<ellipse fill="#aed6f1" stroke="#000000" cx="957.5639" cy="-556.1041" rx="27" ry="18"/>
<text text-anchor="middle" x="957.5639" y="-551.9041" font-family="Times,serif" font-size="14.00" fill="#000000">VIS</text>
</g>
<!-- VE_FORMS&#45;&gt;VIS -->
<g id="edge15" class="edge">
<title>VE_FORMS&#45;&gt;VIS</title>
<path fill="none" stroke="#000000" d="M194.6487,-547.4944C252.7829,-580.5068 373.0281,-640.1041 483.4794,-640.1041 483.4794,-640.1041 483.4794,-640.1041 642.9262,-640.1041 749.5971,-640.1041 869.9364,-594.478 925.8567,-570.4786"/>
<polygon fill="#000000" stroke="#000000" points="196.2758,-544.3925 185.8629,-542.4375 192.7839,-550.4594 196.2758,-544.3925"/>
<polygon fill="#000000" stroke="#000000" points="927.444,-573.6049 935.2157,-566.4042 924.6498,-567.1868 927.444,-573.6049"/>
</g>
<!-- RUR_URB -->
<g id="node14" class="node">
<title>RUR_URB</title>
<ellipse fill="#aed6f1" stroke="#000000" cx="1113.2745" cy="-296.1041" rx="55.6372" ry="18"/>
<text text-anchor="middle" x="1113.2745" y="-291.9041" font-family="Times,serif" font-size="14.00" fill="#000000">RUR_URB</text>
</g>
<!-- VE_FORMS&#45;&gt;RUR_URB -->
<g id="edge18" class="edge">
<title>VE_FORMS&#45;&gt;RUR_URB</title>
<path fill="none" stroke="#000000" d="M220.5652,-514.1176C342.3876,-490.0687 623.2865,-433.4019 857.422,-377.1041 930.9158,-359.4326 950.0226,-357.086 1021.7059,-333.1041 1041.3808,-326.5218 1062.9135,-317.8959 1080.1524,-310.6288"/>
<polygon fill="#000000" stroke="#000000" points="219.807,-510.6996 210.6728,-516.0677 221.1609,-517.5674 219.807,-510.6996"/>
</g>
<!-- DAY_WEEK&#45;&gt;LGT_COND -->
<g id="edge20" class="edge">
<title>DAY_WEEK&#45;&gt;LGT_COND</title>
<path fill="none" stroke="#000000" d="M356.9063,-702.2156C418.8925,-664.0488 546.0229,-585.7706 607.7482,-547.7643"/>
<polygon fill="#000000" stroke="#000000" points="354.9015,-699.3398 348.2213,-707.5633 358.5717,-705.3005 354.9015,-699.3398"/>
<polygon fill="#000000" stroke="#000000" points="609.685,-550.6821 616.3651,-542.4586 606.0147,-544.7214 609.685,-550.6821"/>
</g>
<!-- ROUTE&#45;&gt;LGT_COND -->
<g id="edge22" class="edge">
<title>ROUTE&#45;&gt;LGT_COND</title>
<path fill="none" stroke="#000000" d="M352.9433,-333.124C413.754,-373.5928 546.5962,-461.9977 609.1174,-503.6048"/>
<polygon fill="#000000" stroke="#000000" points="354.7482,-330.121 344.484,-327.4945 350.87,-335.9485 354.7482,-330.121"/>
<polygon fill="#000000" stroke="#000000" points="607.5505,-506.7662 617.8146,-509.3927 611.4287,-500.9387 607.5505,-506.7662"/>
</g>
<!-- ROUTE&#45;&gt;DR_AGE -->
<g id="edge25" class="edge">
<title>ROUTE&#45;&gt;DR_AGE</title>
<path fill="none" stroke="#000000" d="M331.6205,-339.5426C359.618,-410.3835 444.4729,-600.2741 580.9367,-692.1041 634.249,-727.9793 707.1489,-746.4489 753.705,-755.1962"/>
<polygon fill="#000000" stroke="#000000" points="334.7886,-338.0325 327.9029,-329.9804 328.2644,-340.569 334.7886,-338.0325"/>
</g>
<!-- ROUTE&#45;&gt;DR_SEX -->
<g id="edge26" class="edge">
<title>ROUTE&#45;&gt;DR_SEX</title>
<path fill="none" stroke="#000000" d="M339.6952,-337.9025C358.6575,-363.6117 389.9403,-403.431 422.022,-433.1041 471.1561,-478.5493 492.8508,-478.0748 544.9367,-520.1041 561.8284,-533.7344 562.8101,-541.1652 580.9367,-553.1041 646.0526,-595.9921 668.2743,-596.7722 740.9156,-625.1041 802.7668,-649.2276 876.428,-672.6068 919.966,-685.8883"/>
<polygon fill="#000000" stroke="#000000" points="342.4753,-335.7747 333.7534,-329.7597 336.8206,-339.9008 342.4753,-335.7747"/>
</g>
<!-- ROUTE&#45;&gt;PED_DEATH -->
<g id="edge28" class="edge">
<title>ROUTE&#45;&gt;PED_DEATH</title>
<path fill="none" stroke="#000000" d="M325.0836,-293.9722C334.2469,-253.9893 361.6666,-157.7133 422.022,-106.1041 500.0966,-39.3435 540.2002,-38.1041 642.9262,-38.1041 642.9262,-38.1041 642.9262,-38.1041 957.5639,-38.1041 1115.8924,-38.1041 1224.7704,-240.0146 1259.641,-314.7328"/>
<polygon fill="#000000" stroke="#000000" points="1256.5393,-316.366 1263.888,-323.9979 1262.9026,-313.449 1256.5393,-316.366"/>
</g>
<!-- ROUTE&#45;&gt;RELJCT1 -->
<g id="edge21" class="edge">
<title>ROUTE&#45;&gt;RELJCT1</title>
<path fill="none" stroke="#000000" d="M373.5619,-317.2562C389.8726,-318.866 407.9761,-320.6526 424.7062,-322.3037"/>
<polygon fill="#000000" stroke="#000000" points="373.8254,-313.7653 363.53,-316.2662 373.1379,-320.7315 373.8254,-313.7653"/>
<polygon fill="#000000" stroke="#000000" points="424.6219,-325.8123 434.9173,-323.3115 425.3094,-318.8462 424.6219,-325.8123"/>
</g>
<!-- ROUTE&#45;&gt;VPAVETYP -->
<g id="edge23" class="edge">
<title>ROUTE&#45;&gt;VPAVETYP</title>
<path fill="none" stroke="#000000" d="M367.0416,-299.1419C387.083,-293.4554 410.7137,-286.7505 431.4316,-280.872"/>
<polygon fill="#000000" stroke="#000000" points="366.0026,-295.7984 357.3377,-301.8952 367.9133,-302.5326 366.0026,-295.7984"/>
<ellipse fill="none" stroke="#000000" cx="435.3676" cy="-279.7553" rx="4" ry="4"/>
</g>
<!-- ROUTE&#45;&gt;MECISSUE -->
<g id="edge24" class="edge">
<title>ROUTE&#45;&gt;MECISSUE</title>
<path fill="none" stroke="#000000" d="M328.357,-284.3341C340.1335,-244.1 368.0936,-170.8385 422.022,-138.1041 498.7291,-91.5432 763.7283,-101.5084 889.8407,-109.2616"/>
<polygon fill="#000000" stroke="#000000" points="324.9648,-283.4686 325.6431,-294.0417 331.7064,-285.3534 324.9648,-283.4686"/>
<polygon fill="#000000" stroke="#000000" points="889.9402,-112.7747 900.1401,-109.9089 890.3794,-105.7885 889.9402,-112.7747"/>
</g>
<!-- ROUTE&#45;&gt;RUR_URB -->
<g id="edge27" class="edge">
<title>ROUTE&#45;&gt;RUR_URB</title>
<path fill="none" stroke="#000000" d="M345.299,-288.4269C364.342,-271.2769 392.5942,-249.3725 422.022,-239.1041 488.7724,-215.8127 510.2816,-234.5433 580.9367,-232.1041 776.718,-225.3452 835.6165,-169.8936 1021.7059,-231.1041 1046.6924,-239.323 1070.7762,-256.9335 1087.9683,-271.7533"/>
<polygon fill="#000000" stroke="#000000" points="342.6859,-286.0764 337.725,-295.438 347.4411,-291.2134 342.6859,-286.0764"/>
<polygon fill="#000000" stroke="#000000" points="1086.0319,-274.7155 1095.8282,-278.7509 1090.6866,-269.4872 1086.0319,-274.7155"/>
</g>
<!-- LGT_COND&#45;&gt;DR_AGE -->
<g id="edge36" class="edge">
<title>LGT_COND&#45;&gt;DR_AGE</title>
<path fill="none" stroke="#000000" d="M660.2257,-552.2345C692.3111,-600.6987 760.2529,-703.3228 787.5021,-744.4819"/>
<polygon fill="#000000" stroke="#000000" points="663.1085,-550.2486 654.6698,-543.8425 657.2717,-554.1129 663.1085,-550.2486"/>
</g>
<!-- LGT_COND&#45;&gt;DR_SEX -->
<g id="edge37" class="edge">
<title>LGT_COND&#45;&gt;DR_SEX</title>
<path fill="none" stroke="#000000" d="M681.2564,-546.9359C745.5898,-581.9 873.7605,-651.5585 930.0138,-682.1311"/>
<polygon fill="#000000" stroke="#000000" points="682.7016,-543.7379 672.244,-542.0378 679.3589,-549.8882 682.7016,-543.7379"/>
</g>
<!-- LGT_COND&#45;&gt;PED_DEATH -->
<g id="edge39" class="edge">
<title>LGT_COND&#45;&gt;PED_DEATH</title>
<path fill="none" stroke="#000000" d="M690.2132,-537.9601C706.283,-541.9161 724.3607,-546.2864 740.9156,-550.1041 774.7035,-557.8959 858.944,-579.4165 893.422,-583.1041 950.1137,-589.1676 967.5244,-600.8547 1021.7059,-583.1041 1134.3415,-546.2032 1221.4083,-423.8148 1255.7366,-369.0279"/>
<polygon fill="#000000" stroke="#000000" points="1258.893,-370.5773 1261.1597,-360.2278 1252.9337,-366.9049 1258.893,-370.5773"/>
</g>
<!-- LGT_COND&#45;&gt;P_CRASH1 -->
<g id="edge33" class="edge">
<title>LGT_COND&#45;&gt;P_CRASH1</title>
<path fill="none" stroke="#000000" d="M658.4989,-508.3815C677.7947,-486.4408 711.7018,-447.9481 740.9156,-415.1041 752.7295,-401.8223 765.9478,-387.0646 776.803,-374.9724"/>
<polygon fill="#000000" stroke="#000000" points="779.4783,-377.2318 783.5567,-367.4533 774.2706,-372.5542 779.4783,-377.2318"/>
</g>
<!-- LGT_COND&#45;&gt;MECISSUE -->
<g id="edge34" class="edge">
<title>LGT_COND&#45;&gt;MECISSUE</title>
<path fill="none" stroke="#000000" d="M652.6135,-498.6063C667.7057,-457.9346 699.4548,-380.3839 740.9156,-323.1041 796.5922,-246.1848 882.3679,-173.1723 927.4727,-137.2668"/>
<polygon fill="#000000" stroke="#000000" points="649.2829,-497.5233 649.1396,-508.1172 655.8581,-499.925 649.2829,-497.5233"/>
<polygon fill="#000000" stroke="#000000" points="929.7268,-139.9465 935.405,-131.0017 925.3881,-134.4532 929.7268,-139.9465"/>
</g>
<!-- LGT_COND&#45;&gt;VIS -->
<g id="edge35" class="edge">
<title>LGT_COND&#45;&gt;VIS</title>
<path fill="none" stroke="#000000" d="M702.1071,-531.7469C766.192,-537.8572 866.4515,-547.4168 920.3324,-552.5542"/>
<polygon fill="#000000" stroke="#000000" points="920.1787,-556.0553 930.4658,-553.5204 920.8432,-549.0869 920.1787,-556.0553"/>
</g>
<!-- LGT_COND&#45;&gt;RUR_URB -->
<g id="edge38" class="edge">
<title>LGT_COND&#45;&gt;RUR_URB</title>
<path fill="none" stroke="#000000" d="M715.1098,-524.6681C810.9724,-521.4465 973.7805,-510.9971 1021.7059,-477.1041 1036.3697,-466.7339 1085.81,-357.9544 1105.2901,-314.1907"/>
<polygon fill="#000000" stroke="#000000" points="714.7901,-521.1764 704.9063,-524.9923 715.0124,-528.1729 714.7901,-521.1764"/>
</g>
<!-- WEATHER -->
<g id="node15" class="node">
<title>WEATHER</title>
<ellipse fill="#aed6f1" stroke="#000000" cx="799.1688" cy="-442.1041" rx="58.4667" ry="18"/>
<text text-anchor="middle" x="799.1688" y="-437.9041" font-family="Times,serif" font-size="14.00" fill="#000000">WEATHER</text>
</g>
<!-- LGT_COND&#45;&gt;WEATHER -->
<g id="edge32" class="edge">
<title>LGT_COND&#45;&gt;WEATHER</title>
<path fill="none" stroke="#000000" d="M681.6001,-505.312C708.9725,-490.5959 745.1047,-471.1704 770.0527,-457.7577"/>
<polygon fill="#000000" stroke="#000000" points="679.8324,-502.2886 672.682,-510.1066 683.1472,-508.454 679.8324,-502.2886"/>
</g>
<!-- DR_AGE&#45;&gt;DR_SEX -->
<g id="edge53" class="edge">
<title>DR_AGE&#45;&gt;DR_SEX</title>
<path fill="none" stroke="#000000" d="M841.3471,-744.7956C864.4034,-735.334 892.8608,-723.6561 915.8449,-714.2242"/>
<polygon fill="#000000" stroke="#000000" points="839.9109,-741.6016 831.9884,-748.6361 842.5685,-748.0776 839.9109,-741.6016"/>
<polygon fill="#000000" stroke="#000000" points="917.4058,-717.367 925.3284,-710.3325 914.7483,-710.891 917.4058,-717.367"/>
</g>
<!-- DR_AGE&#45;&gt;PED_DEATH -->
<g id="edge54" class="edge">
<title>DR_AGE&#45;&gt;PED_DEATH</title>
<path fill="none" stroke="#000000" d="M848.2979,-760.1999C894.643,-756.9244 965.2368,-748.056 1021.7059,-724.1041 1096.3855,-692.4281 1119.8605,-680.7658 1168.843,-616.1041 1227.8259,-538.241 1256.2052,-422.7931 1266.6812,-370.1268"/>
<polygon fill="#000000" stroke="#000000" points="1270.1447,-370.6495 1268.5956,-360.1685 1263.2706,-369.3279 1270.1447,-370.6495"/>
</g>
<!-- RELJCT1&#45;&gt;LGT_COND -->
<g id="edge29" class="edge">
<title>RELJCT1&#45;&gt;LGT_COND</title>
<path fill="none" stroke="#000000" d="M506.1597,-353.1107C517.9437,-366.3087 532.4519,-382.8825 544.9367,-398.1041 573.32,-432.7093 604.4813,-474.0303 623.8734,-500.172"/>
<polygon fill="#000000" stroke="#000000" points="508.5,-350.4781 499.217,-345.3716 503.2894,-355.1525 508.5,-350.4781"/>
<polygon fill="#000000" stroke="#000000" points="621.2167,-502.4659 629.9776,-508.4239 626.8443,-498.303 621.2167,-502.4659"/>
</g>
<!-- RELJCT1&#45;&gt;P_CRASH1 -->
<g id="edge30" class="edge">
<title>RELJCT1&#45;&gt;P_CRASH1</title>
<path fill="none" stroke="#000000" d="M532.8059,-331.5416C586.4109,-335.2773 672.3797,-341.2684 732.094,-345.4298"/>
<polygon fill="#000000" stroke="#000000" points="731.9635,-348.9291 742.1826,-346.1328 732.4502,-341.946 731.9635,-348.9291"/>
</g>
<!-- RELJCT1&#45;&gt;RUR_URB -->
<g id="edge31" class="edge">
<title>RELJCT1&#45;&gt;RUR_URB</title>
<path fill="none" stroke="#000000" d="M543.3488,-324.4606C623.1794,-319.6676 768.8971,-311.1458 893.422,-305.1041 945.1717,-302.5933 1003.7964,-300.2168 1047.4864,-298.537"/>
<polygon fill="#000000" stroke="#000000" points="542.7742,-320.9888 533.0025,-325.0831 543.1947,-327.9762 542.7742,-320.9888"/>
<polygon fill="#000000" stroke="#000000" points="1047.836,-302.0263 1057.6949,-298.1467 1047.5685,-295.0314 1047.836,-302.0263"/>
</g>
<!-- VPAVETYP&#45;&gt;RUR_URB -->
<g id="edge45" class="edge">
<title>VPAVETYP&#45;&gt;RUR_URB</title>
<path fill="none" stroke="#000000" d="M543.4446,-254.9946C643.8695,-238.4982 851.7765,-213.3958 1021.7059,-252.1041 1041.5844,-256.6323 1062.1807,-266.0422 1078.7936,-275.002"/>
<ellipse fill="none" stroke="#000000" cx="539.4706" cy="-255.6569" rx="4" ry="4"/>
<polygon fill="#000000" stroke="#000000" points="1077.1443,-278.0896 1087.5834,-279.8995 1080.5514,-271.9747 1077.1443,-278.0896"/>
</g>
<!-- VSURCOND -->
<g id="node16" class="node">
<title>VSURCOND</title>
<ellipse fill="#aed6f1" stroke="#000000" cx="957.5639" cy="-426.1041" rx="64.2843" ry="18"/>
<text text-anchor="middle" x="957.5639" y="-421.9041" font-family="Times,serif" font-size="14.00" fill="#000000">VSURCOND</text>
</g>
<!-- VPAVETYP&#45;&gt;VSURCOND -->
<g id="edge44" class="edge">
<title>VPAVETYP&#45;&gt;VSURCOND</title>
<path fill="none" stroke="#000000" d="M553.0813,-263.7845C631.3644,-264.0097 760.2415,-273.0819 857.422,-323.1041 892.1816,-340.9961 921.9192,-375.5939 939.7528,-399.7313"/>
<ellipse fill="none" stroke="#000000" cx="548.7296" cy="-263.7892" rx="4" ry="4"/>
<polygon fill="#000000" stroke="#000000" points="937.0916,-402.0255 945.7718,-408.1005 942.7745,-397.9384 937.0916,-402.0255"/>
</g>
<!-- P_CRASH1&#45;&gt;DR_SEX -->
<g id="edge47" class="edge">
<title>P_CRASH1&#45;&gt;DR_SEX</title>
<path fill="none" stroke="#000000" d="M826.3045,-374.1934C837.5266,-385.5496 849.6957,-399.9278 857.422,-415.1041 892.0666,-483.1545 866.3933,-511.6859 893.422,-583.1041 907.0868,-619.2108 930.8883,-657.6349 945.3378,-679.3763"/>
<polygon fill="#000000" stroke="#000000" points="828.7256,-371.6657 819.1229,-367.1892 823.8381,-376.677 828.7256,-371.6657"/>
</g>
<!-- P_CRASH1&#45;&gt;PED_DEATH -->
<g id="edge49" class="edge">
<title>P_CRASH1&#45;&gt;PED_DEATH</title>
<path fill="none" stroke="#000000" d="M857.5794,-349.1151C942.5065,-347.6772 1100.2104,-345.007 1194.5766,-343.4093"/>
<polygon fill="#000000" stroke="#000000" points="1194.6938,-346.9079 1204.633,-343.239 1194.5752,-339.9089 1194.6938,-346.9079"/>
</g>
<!-- P_CRASH1&#45;&gt;MECISSUE -->
<g id="edge46" class="edge">
<title>P_CRASH1&#45;&gt;MECISSUE</title>
<path fill="none" stroke="#000000" d="M816.6918,-323.9959C849.1287,-275.6666 917.7502,-173.4244 945.5204,-132.0483"/>
<polygon fill="#000000" stroke="#000000" points="813.7409,-322.112 811.0742,-332.3658 819.5532,-326.013 813.7409,-322.112"/>
</g>
<!-- P_CRASH1&#45;&gt;RUR_URB -->
<g id="edge48" class="edge">
<title>P_CRASH1&#45;&gt;RUR_URB</title>
<path fill="none" stroke="#000000" d="M854.5537,-336.3515C867.2791,-333.4216 880.785,-330.4942 893.422,-328.1041 950.4602,-317.3164 1016.4183,-308.153 1061.0953,-302.4325"/>
<polygon fill="#000000" stroke="#000000" points="853.4872,-333.0064 844.5469,-338.6915 855.0812,-339.8225 853.4872,-333.0064"/>
</g>
<!-- MECISSUE&#45;&gt;PED_DEATH -->
<g id="edge51" class="edge">
<title>MECISSUE&#45;&gt;PED_DEATH</title>
<path fill="none" stroke="#000000" d="M990.8943,-129.1422C1001.0238,-134.1311 1012.0293,-139.9849 1021.7059,-146.1041 1107.9245,-200.626 1200.0542,-278.6949 1244.5328,-317.8117"/>
<polygon fill="#000000" stroke="#000000" points="1242.4595,-320.6502 1252.2712,-324.6479 1247.094,-315.4041 1242.4595,-320.6502"/>
</g>
<!-- MECISSUE&#45;&gt;RUR_URB -->
<g id="edge50" class="edge">
<title>MECISSUE&#45;&gt;RUR_URB</title>
<path fill="none" stroke="#000000" d="M1003.6337,-133.0754C1010.0954,-136.8454 1016.349,-141.1858 1021.7059,-146.1041 1032.053,-155.6041 1074.8979,-229.0574 1098.1313,-269.5376"/>
<polygon fill="#000000" stroke="#000000" points="1005.2208,-129.9548 994.758,-128.2874 1001.8973,-136.1156 1005.2208,-129.9548"/>
<polygon fill="#000000" stroke="#000000" points="1095.1719,-271.4129 1103.1789,-278.3511 1101.2463,-267.934 1095.1719,-271.4129"/>
</g>
<!-- VIS&#45;&gt;PED_DEATH -->
<g id="edge52" class="edge">
<title>VIS&#45;&gt;PED_DEATH</title>
<path fill="none" stroke="#000000" d="M980.02,-546.0289C992.5583,-540.1265 1008.3059,-532.2473 1021.7059,-524.1041 1105.4856,-473.1914 1196.9417,-402.2924 1242.4815,-365.8362"/>
<polygon fill="#000000" stroke="#000000" points="1244.8355,-368.4346 1250.4382,-359.4424 1240.4507,-362.9781 1244.8355,-368.4346"/>
</g>
<!-- RUR_URB&#45;&gt;PED_DEATH -->
<g id="edge55" class="edge">
<title>RUR_URB&#45;&gt;PED_DEATH</title>
<path fill="none" stroke="#000000" d="M1154.8884,-308.1901C1173.7133,-313.6574 1196.2262,-320.1958 1216.4388,-326.0662"/>
<polygon fill="#000000" stroke="#000000" points="1215.571,-329.4587 1226.1504,-328.8867 1217.5234,-322.7365 1215.571,-329.4587"/>
</g>
<!-- WEATHER&#45;&gt;VIS -->
<g id="edge41" class="edge">
<title>WEATHER&#45;&gt;VIS</title>
<path fill="none" stroke="#000000" d="M822.2008,-458.6807C850.9391,-479.3642 900.0056,-514.6783 930.5055,-536.6296"/>
<polygon fill="#000000" stroke="#000000" points="928.7965,-539.7119 938.9575,-542.7127 932.8856,-534.0304 928.7965,-539.7119"/>
</g>
<!-- WEATHER&#45;&gt;RUR_URB -->
<g id="edge42" class="edge">
<title>WEATHER&#45;&gt;RUR_URB</title>
<path fill="none" stroke="#000000" d="M847.2575,-458.6788C894.8533,-471.981 968.1577,-483.8632 1021.7059,-453.1041 1070.1003,-425.3055 1095.333,-360.9758 1106.3081,-323.8634"/>
<polygon fill="#000000" stroke="#000000" points="848.0878,-455.2752 837.5077,-455.8336 846.1267,-461.9949 848.0878,-455.2752"/>
<polygon fill="#000000" stroke="#000000" points="1109.696,-324.7446 1109.0329,-314.1705 1102.9572,-322.8501 1109.696,-324.7446"/>
</g>
<!-- WEATHER&#45;&gt;VSURCOND -->
<g id="edge40" class="edge">
<title>WEATHER&#45;&gt;VSURCOND</title>
<path fill="none" stroke="#000000" d="M854.5677,-436.5081C864.9791,-435.4564 875.9953,-434.3436 886.7998,-433.2522"/>
<polygon fill="#000000" stroke="#000000" points="887.4696,-436.7025 897.0672,-432.2151 886.766,-429.7379 887.4696,-436.7025"/>
</g>
<!-- PREV_ACC -->
<g id="node17" class="node">
<title>PREV_ACC</title>
<ellipse fill="#aed6f1" stroke="#000000" cx="642.9262" cy="-838.1041" rx="60.2923" ry="18"/>
<text text-anchor="middle" x="642.9262" y="-833.9041" font-family="Times,serif" font-size="14.00" fill="#000000">PREV_ACC</text>
</g>
<!-- PREV_ACC&#45;&gt;DR_AGE -->
<g id="edge43" class="edge">
<title>PREV_ACC&#45;&gt;DR_AGE</title>
<path fill="none" stroke="#000000" d="M683.6993,-818.2711C710.5751,-805.1981 745.1631,-788.3738 769.4504,-776.5598"/>
<polygon fill="#000000" stroke="#000000" points="682.0058,-815.2027 674.5442,-822.7244 685.0678,-821.4975 682.0058,-815.2027"/>
</g>
</g>
</svg>

